<svg height="512pt" viewBox="0 0 512 512" width="512pt" xmlns="http://www.w3.org/2000/svg"><path d="m251.878906 212.792969c0-27.601563-24.101562-42.640625-48-42.640625-23.480468 0-46.554687 14.421875-46.554687 39.550781 0 12.980469 6.183593 16.6875 14.421875 16.6875 10.503906 0 16.890625-5.769531 16.890625-11.742187 0-11.332032 7.210937-15.449219 15.449219-15.449219 11.535156 0 15.65625 8.035156 15.65625 14.625 0 26.160156-64.886719 44.699219-64.886719 77.042969v19.980468c0 5.972656 8.238281 9.886719 14.007812 9.886719h73.332031c5.148438 0 9.683594-6.796875 9.683594-14.210937 0-7.417969-4.535156-13.804688-9.683594-13.804688h-53.96875v-1.851562c0-18.746094 63.652344-33.371094 63.652344-78.074219zm0 0"/><path d="m327.066406 320.734375c8.035156 0 16.066406-3.296875 16.066406-9.886719v-21.835937h8.859376c4.941406 0 9.886718-7.414063 9.886718-14.832031 0-7.414063-3.292968-14.832032-9.886718-14.832032h-8.859376v-14.417968c0-6.796876-8.03125-9.683594-16.066406-9.683594-8.03125 0-16.066406 2.886718-16.066406 9.683594v14.417968h-17.714844l36.460938-73.125c.617187-1.445312 1.027344-2.679687 1.027344-3.914062 0-7.417969-10.503907-12.15625-16.0625-12.15625-5.152344 0-10.304688 2.265625-13.394532 8.242187l-47.582031 93.3125c-4.050781 7.425781-.609375 17.304688 9.0625 17.304688h48.203125v21.835937c0 6.589844 8.035156 9.886719 16.066406 9.886719zm0 0"/><path d="m492 236c-11.046875 0-20 8.953125-20 20 0 119.378906-96.605469 216-216 216-119.378906 0-216-96.605469-216-216 0-119.378906 96.605469-216 216-216 43.789062 0 84.785156 12.960938 119.460938 36h-21.976563c-11.046875 0-20 8.953125-20 20s8.953125 20 20 20h76c11.042969 0 20-9.09375 20-20v-76c0-11.046875-8.957031-20-20-20-11.046875 0-20 8.953125-20 20v31.070312c-42.300781-31.742187-95.46875-51.070312-153.484375-51.070312-141.484375 0-256 114.496094-256 256 0 141.484375 114.496094 256 256 256 141.484375 0 256-114.496094 256-256 0-11.046875-8.953125-20-20-20zm0 0"/></svg>