<?xml version="1.0" encoding="iso-8859-1"?>
<!-- Generator: Adobe Illustrator 19.0.0, SVG Export Plug-In . SVG Version: 6.00 Build 0)  -->
<svg version="1.1" id="Capa_1" xmlns="http://www.w3.org/2000/svg" xmlns:xlink="http://www.w3.org/1999/xlink" x="0px" y="0px"
	 viewBox="0 0 512 512" style="enable-background:new 0 0 512 512;" xml:space="preserve">
<g>
	<g>
		<path d="M492,396H40V96c0-11.046-8.954-20-20-20S0,84.954,0,96v320c0,11.046,8.954,20,20,20h472c11.046,0,20-8.954,20-20
			C512,404.954,503.046,396,492,396z"/>
	</g>
</g>
<g>
	<g>
		<path d="M418.179,170.156c-0.023-0.016-0.047-0.03-0.07-0.046c-0.165-0.126-0.315-0.264-0.485-0.385
			c-7.565-5.404-17.598-4.764-24.417,0.926l-52.763,24.311c-13.973,6.439-15.719,25.627-3.177,34.495l8.713,6.16L306,291.591
			l-83.726-117.215C218.521,169.119,212.459,166,206,166s-12.521,3.119-16.274,8.375l-100,140
			c-6.421,8.988-4.339,21.479,4.649,27.899c8.993,6.424,21.484,4.332,27.899-4.65L206,220.409l83.726,117.215
			C293.479,342.881,299.541,346,306,346c6.459,0,12.521-3.119,16.274-8.375l56.367-78.914l10.607,7.5
			c12.481,8.824,30.042,0.926,31.462-14.497l5.838-63.393C427.203,181.206,424.013,174.281,418.179,170.156z"/>
	</g>
</g>
<g>
</g>
<g>
</g>
<g>
</g>
<g>
</g>
<g>
</g>
<g>
</g>
<g>
</g>
<g>
</g>
<g>
</g>
<g>
</g>
<g>
</g>
<g>
</g>
<g>
</g>
<g>
</g>
<g>
</g>
</svg>
