<svg height="512pt" viewBox="-53 0 512 512" width="512pt" xmlns="http://www.w3.org/2000/svg"><path d="m345.886719 31h-153.382813c-10.242187-18.46875-29.933594-31-52.503906-31s-42.261719 12.53125-52.503906 31h-27.496094c-33.085938 0-60 26.914062-60 60v361c0 33.085938 26.914062 60 60 60h285.890625c33.082031 0 60-26.914062 60-60v-361c-.003906-33.085938-26.917969-60-60.003906-60zm20 421c0 11.027344-8.972657 20-20 20h-285.886719c-11.027344 0-20-8.972656-20-20v-361c0-11.027344 8.972656-20 20-20h100v143c0 11.027344-8.972656 20-20 20s-20-8.972656-20-20v-96h-40v96c0 33.085938 26.914062 60 60 60s60-26.914062 60-60v-143h145.890625c11.027344 0 20 8.972656 20 20v361zm-285.886719-60h165v40h-165zm0-79h245v40h-245zm159-78h86v40h-86zm0-79h86v40h-86zm0 0"/></svg>