<svg width="36" height="36" viewBox="0 0 36 36" fill="none" xmlns="http://www.w3.org/2000/svg">
<path d="M3.375 12.375H32.625" stroke="#E14817" stroke-width="2" stroke-miterlimit="10" stroke-linecap="round" stroke-linejoin="round"/>
<path d="M7.875 10.125C7.5375 10.125 7.3125 10.0125 7.0875 9.7875C6.8625 9.5625 6.75 9.3375 6.75 9C6.75 8.6625 6.8625 8.4375 7.0875 8.2125L7.2 8.1C7.3125 8.1 7.3125 7.9875 7.425 7.9875C7.5375 7.875 7.5375 7.875 7.65 7.875C7.7625 7.875 7.9875 7.875 8.1 7.875C8.2125 7.875 8.2125 7.875 8.325 7.9875C8.4375 7.9875 8.4375 8.1 8.55 8.1L8.6625 8.2125C8.775 8.325 8.8875 8.4375 8.8875 8.55C9 8.6625 9 8.8875 9 9C9 9.1125 9 9.3375 8.8875 9.45C8.8875 9.5625 8.775 9.675 8.6625 9.7875C8.4375 10.0125 8.2125 10.125 7.875 10.125Z" fill="#E14817"/>
<path d="M11.25 10.125C10.9125 10.125 10.6875 10.0125 10.4625 9.7875C10.2375 9.5625 10.125 9.3375 10.125 9C10.125 8.8875 10.125 8.6625 10.2375 8.55C10.35 8.4375 10.35 8.325 10.4625 8.2125C10.575 8.1 10.6875 7.9875 10.8 7.9875C11.25 7.7625 11.7 7.875 12.0375 8.2125C12.15 8.325 12.2625 8.4375 12.2625 8.55C12.375 8.6625 12.375 8.8875 12.375 9C12.375 9.3375 12.2625 9.5625 12.0375 9.7875C11.8125 10.0125 11.5875 10.125 11.25 10.125Z" fill="#E14817"/>
<path d="M14.625 10.125C14.5125 10.125 14.2875 10.125 14.175 10.0125C14.0625 9.9 13.95 9.9 13.8375 9.7875C13.725 9.675 13.6125 9.5625 13.6125 9.45C13.5 9.3375 13.5 9.1125 13.5 9C13.5 8.8875 13.5 8.6625 13.6125 8.55C13.725 8.4375 13.725 8.325 13.8375 8.2125C14.2875 7.7625 14.9625 7.7625 15.4125 8.2125C15.525 8.325 15.6375 8.4375 15.6375 8.55C15.75 8.6625 15.75 8.8875 15.75 9C15.75 9.1125 15.75 9.3375 15.6375 9.45C15.525 9.5625 15.525 9.675 15.4125 9.7875C15.1875 10.0125 14.9625 10.125 14.625 10.125Z" fill="#E14817"/>
<path d="M30.375 5.625H5.625C4.3875 5.625 3.375 6.6375 3.375 7.875V28.125C3.375 29.3625 4.3875 30.375 5.625 30.375H30.375C31.6125 30.375 32.625 29.3625 32.625 28.125V7.875C32.625 6.6375 31.6125 5.625 30.375 5.625Z" stroke="#E14817" stroke-width="2" stroke-miterlimit="10" stroke-linecap="round" stroke-linejoin="round"/>
<path d="M11.25 12.375V30.375" stroke="#E14817" stroke-width="2" stroke-miterlimit="10" stroke-linecap="round" stroke-linejoin="round"/>
<path d="M11.25 19.125H32.625" stroke="#E14817" stroke-width="2" stroke-miterlimit="10" stroke-linecap="round" stroke-linejoin="round"/>
</svg>
