<svg xmlns="http://www.w3.org/2000/svg" xmlns:xlink="http://www.w3.org/1999/xlink" width="85" height="26.26" viewBox="0 0 85 26.26">
  <defs>
    <clipPath id="clip-iPhone_X_XS_11_Pro_1">
      <rect width="85" height="26.26"/>
    </clipPath>
  </defs>
  <g id="iPhone_X_XS_11_Pro_1" data-name="iPhone X/XS/11 Pro – 1" clip-path="url(#clip-iPhone_X_XS_11_Pro_1)">
    <rect width="85" height="26.26" fill="#fff"/>
    <g id="ATOS6_PACK_Prancheta_1_cópia_4" data-name="ATOS6_PACK_Prancheta 1 cópia 4" transform="translate(-316.348 -260)">
      <path id="Caminho_1" data-name="Caminho 1" d="M473.243,293.2h-.479a4.378,4.378,0,0,0-4.378,4.378H466.34v4.153h2.046v8.119c0,3.963,2.013,5.145,4.99,5.145a7.167,7.167,0,0,0,3.836-.99v-3.9a4.93,4.93,0,0,1-2.4.608c-1.087,0-1.567-.544-1.567-1.662v-7.319h4.027v-4.153h-4.033Z" transform="translate(-130.296 -28.84)" fill="#39007c"/>
      <path id="Caminho_2" data-name="Caminho 2" d="M717.868,333.133c-1.828-.63-3.435-1.072-3.435-2.017v-.063c0-.657.6-1.166,1.765-1.166a10.008,10.008,0,0,1,4.57,1.576l1.828-3.308a11.687,11.687,0,0,0-6.3-1.955c-3.4,0-6.172,1.922-6.172,5.358v.063c0,3.283,2.677,4.381,5.041,5.074,1.859.567,3.5.919,3.5,1.954v.063c0,.756-.63,1.261-2.017,1.261a9.551,9.551,0,0,1-5.326-2.017l-2.047,3.152a11.828,11.828,0,0,0,7.247,2.553c3.656,0,6.461-1.707,6.461-5.452v-.063C722.974,335.057,720.232,333.921,717.868,333.133Z" transform="translate(-341.326 -57.507)" fill="#39007c"/>
      <path id="Caminho_3" data-name="Caminho 3" d="M574.858,326.39a8.718,8.718,0,1,0,8.718,8.718A8.718,8.718,0,0,0,574.858,326.39Zm0,13.078a4.36,4.36,0,1,1,4.36-4.36,4.36,4.36,0,0,1-4.36,4.36Z" transform="translate(-216.991 -57.672)" fill="#39007c"/>
      <path id="Caminho_4" data-name="Caminho 4" d="M325.066,326.39a8.718,8.718,0,1,0,4.922,15.914,4.366,4.366,0,0,0,3.317,1.522h.479v-8.718a8.719,8.719,0,0,0-8.717-8.718Zm3.082,11.8a4.358,4.358,0,1,1,1.276-3.082A4.358,4.358,0,0,1,328.148,338.19Z" transform="translate(0 -57.672)" fill="#39007c"/>
      <path id="Caminho_5" data-name="Caminho 5" d="M839.588,268.827V260s-8.718,8.827-8.718,17.545a8.718,8.718,0,1,0,8.718-8.718Zm0,13.076a4.36,4.36,0,1,1,4.36-4.359,4.36,4.36,0,0,1-4.36,4.359Z" transform="translate(-446.958)" fill="#0ed2cc"/>
    </g>
  </g>
</svg>
