<svg width="36" height="36" viewBox="0 0 36 36" fill="none" xmlns="http://www.w3.org/2000/svg">
<path d="M28.125 32.625H7.875C7.2 32.625 6.75 32.175 6.75 31.5V21.375C6.75 20.7 7.2 20.25 7.875 20.25H28.125C28.8 20.25 29.25 20.7 29.25 21.375V31.5C29.25 32.175 28.8 32.625 28.125 32.625Z" stroke="white" stroke-width="2" stroke-miterlimit="10" stroke-linecap="round" stroke-linejoin="round"/>
<path d="M26.4375 12.2625C24.525 14.4 21.4875 15.75 18 15.75C14.5125 15.75 11.475 14.4 9.67505 12.2625" stroke="white" stroke-width="2" stroke-miterlimit="10" stroke-linecap="round" stroke-linejoin="round"/>
<path d="M7.875 20.25V18C7.875 12.375 12.375 7.875 18 7.875C23.625 7.875 28.125 12.375 28.125 18V20.25" stroke="white" stroke-width="2" stroke-miterlimit="10" stroke-linecap="round" stroke-linejoin="round"/>
<path d="M15.75 12.375H20.25" stroke="white" stroke-width="2" stroke-miterlimit="10" stroke-linecap="round" stroke-linejoin="round"/>
<path d="M13.5 23.625H22.5" stroke="white" stroke-width="2" stroke-miterlimit="10" stroke-linecap="round" stroke-linejoin="round"/>
<path d="M14.625 7.875V6.75C14.625 4.8375 16.0875 3.375 18 3.375C19.9125 3.375 21.375 4.8375 21.375 6.75V7.875" stroke="white" stroke-width="2" stroke-miterlimit="10" stroke-linecap="round" stroke-linejoin="round"/>
<path d="M6.75 28.9125C6.4125 29.1375 6.075 29.25 5.625 29.25C4.3875 29.25 3.375 28.2375 3.375 27V20.25C3.375 19.0125 4.3875 18 5.625 18C6.8625 18 7.875 19.0125 7.875 20.25" stroke="white" stroke-width="2" stroke-miterlimit="10" stroke-linecap="round" stroke-linejoin="round"/>
<path d="M29.25 28.9125C29.5875 29.1375 29.925 29.25 30.375 29.25C31.6125 29.25 32.625 28.2375 32.625 27V20.25C32.625 19.0125 31.6125 18 30.375 18C29.1375 18 28.125 19.0125 28.125 20.25" stroke="white" stroke-width="2" stroke-miterlimit="10" stroke-linecap="round" stroke-linejoin="round"/>
</svg>
