<?xml version="1.0" encoding="iso-8859-1"?>
<!-- Generator: Adobe Illustrator 19.0.0, SVG Export Plug-In . SVG Version: 6.00 Build 0)  -->
<svg version="1.1" id="Capa_1" xmlns="http://www.w3.org/2000/svg" xmlns:xlink="http://www.w3.org/1999/xlink" x="0px" y="0px"
	 viewBox="0 0 512 512" style="enable-background:new 0 0 512 512;" xml:space="preserve">
<g>
	<g>
		<path d="M492,192c11.046,0,20-8.954,20-20V96c0-8.684-5.604-16.375-13.869-19.037l-236-76c-3.986-1.283-8.275-1.283-12.262,0
			l-236,76C5.604,79.625,0,87.316,0,96v76c0,11.046,8.954,20,20,20h30v204H20c-11.046,0-20,8.954-20,20v76c0,11.046,8.954,20,20,20
			h472c11.046,0,20-8.954,20-20v-76c0-11.046-8.954-20-20-20h-30V192H492z M472,436v36H40v-36C54.155,436,466.627,436,472,436z
			 M90,396V192h36v204H90z M166,396V192h32v204H166z M238,396V192h36v204H238z M314,396V192h32v204H314z M386,396V192h36v204H386z
			 M40,152v-41.429l216-69.56l216,69.56V152C469.77,152,44.092,152,40,152z"/>
	</g>
</g>
<g>
	<g>
		<circle cx="256" cy="106" r="25"/>
	</g>
</g>
<g>
</g>
<g>
</g>
<g>
</g>
<g>
</g>
<g>
</g>
<g>
</g>
<g>
</g>
<g>
</g>
<g>
</g>
<g>
</g>
<g>
</g>
<g>
</g>
<g>
</g>
<g>
</g>
<g>
</g>
</svg>
