<svg height="512pt" viewBox="0 0 512 512" width="512pt" xmlns="http://www.w3.org/2000/svg"><path d="m492 0h-393.332031c-11.046875 0-20 8.953125-20 20v373.332031h-58.667969c-11.046875 0-20 8.953125-20 20 0 54.40625 44.261719 98.667969 98.667969 98.667969h314.667969c54.402343 0 98.664062-44.261719 98.664062-98.667969v-393.332031c0-11.046875-8.953125-20-20-20zm-393.332031 472c-25.332031 0-46.960938-16.132812-55.15625-38.667969h273.191406c2.945313 14.246094 8.96875 27.378907 17.347656 38.667969zm314.664062 0c-32.347656 0-58.667969-26.316406-58.667969-58.667969 0-11.046875-8.953124-20-20-20h-216v-353.332031h353.335938v324.847656l-65.382812-65.382812c17.03125-23 27.117187-51.441406 27.117187-82.195313 0-76.3125-62.085937-138.402343-138.402344-138.402343-76.316406 0-138.402343 62.089843-138.402343 138.402343 0 76.316407 62.085937 138.402344 138.402343 138.402344 31.167969 0 59.957031-10.355469 83.117188-27.808594l93.042969 93.046875c-3.726563 28.78125-28.378907 51.089844-58.160157 51.089844zm-118-156.324219c-54.257812 0-98.402343-44.144531-98.402343-98.402343 0-54.261719 44.144531-98.40625 98.402343-98.40625 54.261719 0 98.402344 44.144531 98.402344 98.40625 0 54.257812-44.140625 98.402343-98.402344 98.402343zm0 0"/></svg>