<svg width="36" height="36" viewBox="0 0 36 36" fill="none" xmlns="http://www.w3.org/2000/svg">
<path d="M24.75 29.25C27.2353 29.25 29.25 27.2353 29.25 24.75C29.25 22.2647 27.2353 20.25 24.75 20.25C22.2647 20.25 20.25 22.2647 20.25 24.75C20.25 27.2353 22.2647 29.25 24.75 29.25Z" stroke="white" stroke-width="2" stroke-miterlimit="10"/>
<path d="M29.475 26.325L31.8374 28.6875C32.7374 29.5875 32.7374 31.05 31.8374 31.8375C30.9374 32.7375 29.475 32.7375 28.6875 31.8375L26.325 29.475" stroke="white" stroke-width="2" stroke-miterlimit="10"/>
<path d="M31.5 18V5.625H4.5V24.75C4.5 24.75 4.5 30.375 4.5 31.5C7.5375 28.9125 11.025 27 14.85 25.875" stroke="white" stroke-width="2" stroke-miterlimit="10" stroke-linejoin="round"/>
<path d="M12.375 13.5H19.125" stroke="white" stroke-width="2" stroke-miterlimit="10" stroke-linecap="round" stroke-linejoin="round"/>
<path d="M12.375 18H15.75" stroke="white" stroke-width="2" stroke-miterlimit="10" stroke-linecap="round" stroke-linejoin="round"/>
</svg>
