<svg id="Capa_1" enable-background="new 0 0 512 512" height="512" viewBox="0 0 512 512" width="512" xmlns="http://www.w3.org/2000/svg"><g><path d="m443.55 238.082c-8.878-77.333-74.482-137.582-153.836-137.582-79.035 0-144.432 59.762-153.725 136.648-76.525 9.373-135.989 75.02-135.989 154.352 0 11.046 8.954 20 20 20h404.571c48.208 0 87.429-39.364 87.429-87.75 0-41.847-29.335-76.946-68.45-85.668zm-18.979 133.418h-382.848c9.445-54.19 56.582-95.5 113.134-95.5 11.046 0 20-8.954 20-20 0-63.687 51.524-115.5 114.857-115.5s114.857 51.813 114.857 115.5c0 11.046 8.954 20 20 20 26.153 0 47.429 21.42 47.429 47.75s-21.276 47.75-47.429 47.75z"/></g></svg>