<svg width="36" height="36" viewBox="0 0 36 36" fill="none" xmlns="http://www.w3.org/2000/svg">
<path d="M29.8125 3.375C30.0375 3.375 30.15 3.375 30.375 3.375C33.3 3.7125 34.7625 7.2 33.075 9.675L22.05 26.2125C20.3625 28.6875 21.825 32.175 24.75 32.5125C24.975 32.5125 25.0875 32.5125 25.3125 32.5125C27.7875 32.5125 29.8125 30.4875 29.8125 28.0125H22.5" stroke="#E14817" stroke-width="2" stroke-miterlimit="10" stroke-linecap="round" stroke-linejoin="round"/>
<path d="M29.25 3.375H10.6875" stroke="#E14817" stroke-width="2" stroke-miterlimit="10" stroke-linecap="round" stroke-linejoin="round"/>
<path d="M12.7125 11.5875L2.92498 26.2125C1.34998 28.6875 2.69998 32.2875 5.62498 32.625C5.84998 32.625 5.96248 32.625 6.18748 32.625H24.75" stroke="#E14817" stroke-width="2" stroke-miterlimit="10" stroke-linecap="round" stroke-linejoin="round"/>
<path d="M10.125 3.375C7.65 3.375 5.625 5.4 5.625 7.875C5.625 8.4375 5.85 9 6.075 9.45C6.75 10.575 8.1 11.25 9.45 11.25H27C25.875 11.25 23.5125 8.1 25.9875 5.0625C26.775 4.05 28.0125 3.375 29.25 3.375C31.725 3.375 33.75 5.4 33.75 7.875" stroke="#E14817" stroke-width="2" stroke-miterlimit="10" stroke-linecap="round" stroke-linejoin="round"/>
<path d="M14.625 16.875H20.25" stroke="#E14817" stroke-width="2" stroke-miterlimit="10" stroke-linecap="round" stroke-linejoin="round"/>
<path d="M12.375 20.25H15.75" stroke="#E14817" stroke-width="2" stroke-miterlimit="10" stroke-linecap="round" stroke-linejoin="round"/>
</svg>
