<?xml version="1.0" encoding="iso-8859-1"?>
<!-- Generator: Adobe Illustrator 19.0.0, SVG Export Plug-In . SVG Version: 6.00 Build 0)  -->
<svg version="1.1" id="Capa_1" xmlns="http://www.w3.org/2000/svg" xmlns:xlink="http://www.w3.org/1999/xlink" x="0px" y="0px"
	 viewBox="0 0 512 512" style="enable-background:new 0 0 512 512;" xml:space="preserve">
<g>
	<g>
		<path d="M256,0C114.507,0,0,114.497,0,256c0,141.491,114.497,256,256,256c141.491,0,256-114.497,256-256
			C512,114.507,397.503,0,256,0z M256,472c-119.384,0-216-96.607-216-216c0-119.385,96.607-216,216-216
			c119.384,0,216,96.607,216,216C472,375.385,375.392,472,256,472z"/>
	</g>
</g>
<g>
	<g>
		<path d="M281,236h-50c-19.299,0-35-15.701-35-35s15.701-35,35-35h105c11.046,0,20-8.954,20-20s-8.954-20-20-20h-60V96
			c0-11.046-8.954-20-20-20c-11.046,0-20,8.954-20,20v30h-5c-41.355,0-75,33.645-75,75s33.645,75,75,75h50c19.299,0,35,15.701,35,35
			s-15.701,35-35,35H176c-11.046,0-20,8.954-20,20c0,11.046,8.954,20,20,20h60v30c0,11.046,8.954,20,20,20s20-8.954,20-20v-30h5
			c41.355,0,75-33.645,75-75C356,269.645,322.355,236,281,236z"/>
	</g>
</g>
<g>
</g>
<g>
</g>
<g>
</g>
<g>
</g>
<g>
</g>
<g>
</g>
<g>
</g>
<g>
</g>
<g>
</g>
<g>
</g>
<g>
</g>
<g>
</g>
<g>
</g>
<g>
</g>
<g>
</g>
</svg>
