<svg height="512pt" viewBox="-118 0 512 512" width="512pt" xmlns="http://www.w3.org/2000/svg"><path d="m47.15625 205.65625c7.800781 7.796875 20.476562 7.804688 28.285156 0l41.296875-41.300781c7.8125-7.808594 7.8125-20.472657 0-28.285157-7.808593-7.808593-20.472656-7.808593-28.285156 0l-7.152344 7.15625v-123.226562c0-11.046875-8.957031-20-20-20-11.046875 0-20 8.953125-20 20v123.226562l-7.15625-7.15625c-7.8125-7.808593-20.476562-7.808593-28.285156 0-7.8125 7.8125-7.8125 20.476563 0 28.285157zm0 0"/><path d="m187.546875 75.441406 7.152344-7.15625v123.226563c0 11.046875 8.957031 20 20 20 11.046875 0 20-8.953125 20-20v-123.226563l7.15625 7.15625c7.808593 7.808594 20.476562 7.8125 28.285156 0 7.8125-7.8125 7.8125-20.476562 0-28.285156l-41.296875-41.300781c-7.726562-7.722657-20.441406-7.84375-28.285156 0l-41.296875 41.300781c-7.8125 7.8125-7.8125 20.476562 0 28.285156 7.808593 7.808594 20.472656 7.8125 28.285156 0zm0 0"/><path d="m256 236h-236c-11.046875 0-20 8.953125-20 20v236c0 11.046875 8.953125 20 20 20h236c11.046875 0 20-8.953125 20-20v-236c0-11.046875-8.953125-20-20-20zm-20 236h-196v-196h196zm0 0"/><path d="m100 354.667969h76c11.046875 0 20-8.953125 20-20s-8.953125-20-20-20h-76c-11.046875 0-20 8.953125-20 20s8.953125 20 20 20zm0 0"/><path d="m100 433.332031h76c11.046875 0 20-8.953125 20-20s-8.953125-20-20-20h-76c-11.046875 0-20 8.953125-20 20s8.953125 20 20 20zm0 0"/></svg>