<?xml version="1.0" encoding="iso-8859-1"?>
<!-- Generator: Adobe Illustrator 19.0.0, SVG Export Plug-In . SVG Version: 6.00 Build 0)  -->
<svg version="1.1" id="Capa_1" xmlns="http://www.w3.org/2000/svg" xmlns:xlink="http://www.w3.org/1999/xlink" x="0px" y="0px"
	 viewBox="0 0 512 512" style="enable-background:new 0 0 512 512;" xml:space="preserve">
<g>
	<g>
		<path d="M256,136c-66.168,0-120,53.832-120,120s53.832,120,120,120c66.168,0,120-53.832,120-120S322.168,136,256,136z M256,336
			c-44.112,0-80-35.888-80-80s35.888-80,80-80s80,35.888,80,80S300.112,336,256,336z"/>
	</g>
</g>
<g>
	<g>
		<path d="M256,206c-27.57,0-50,22.43-50,50s22.43,50,50,50s50-22.43,50-50S283.57,206,256,206z M256,266c-5.514,0-10-4.486-10-10
			c0-5.514,4.486-10,10-10c5.514,0,10,4.486,10,10C266,261.514,261.514,266,256,266z"/>
	</g>
</g>
<g>
	<g>
		<path d="M416,415H144.716l21.995-21.995c7.811-7.811,7.811-20.474,0-28.284c-7.811-7.81-20.474-7.811-28.284,0l-53.949,53.95
			C79.354,422.292,76,428.249,76,435c0,0.071,0.01,0.139,0.011,0.21c-0.057,5.192,1.885,10.402,5.847,14.364l56.568,56.568
			c7.81,7.81,20.473,7.811,28.284,0c7.811-7.811,7.811-20.474,0-28.284L143.853,455H416c11.046,0,20-8.954,20-20
			C436,423.954,427.046,415,416,415z"/>
	</g>
</g>
<g>
	<g>
		<path d="M435.989,76.79c0.058-5.192-1.885-10.402-5.847-14.364L373.574,5.858c-7.811-7.811-20.474-7.811-28.284,0
			c-7.81,7.811-7.811,20.474,0,28.284L368.147,57H96c-11.046,0-20,8.954-20,20s8.954,20,20,20h271.284l-21.995,21.995
			c-7.811,7.811-7.811,20.474,0,28.284c7.81,7.81,20.473,7.811,28.284,0l53.949-53.95C432.646,89.708,436,83.751,436,77
			C436,76.929,435.99,76.861,435.989,76.79z"/>
	</g>
</g>
<g>
</g>
<g>
</g>
<g>
</g>
<g>
</g>
<g>
</g>
<g>
</g>
<g>
</g>
<g>
</g>
<g>
</g>
<g>
</g>
<g>
</g>
<g>
</g>
<g>
</g>
<g>
</g>
<g>
</g>
</svg>
