<?xml version="1.0" encoding="iso-8859-1"?>
<!-- Generator: Adobe Illustrator 18.0.0, SVG Export Plug-In . SVG Version: 6.00 Build 0)  -->
<!DOCTYPE svg PUBLIC "-//W3C//DTD SVG 1.1//EN" "http://www.w3.org/Graphics/SVG/1.1/DTD/svg11.dtd">
<svg version="1.1" id="Capa_1" xmlns="http://www.w3.org/2000/svg" xmlns:xlink="http://www.w3.org/1999/xlink" x="0px" y="0px"
	 viewBox="0 0 297 297" style="enable-background:new 0 0 297 297;" xml:space="preserve">
<g>
	<path d="M279.497,74.91H53.132c3.672-17.851,19.466-31.313,38.337-31.313h62.144l-6.336,5.367
		c-4.23,3.584-4.754,9.917-1.171,14.148c1.986,2.344,4.816,3.55,7.665,3.55c2.292,0,4.598-0.781,6.484-2.378l27.229-23.065
		c2.238-1.897,3.535-4.678,3.55-7.612c0.014-2.934-1.256-5.727-3.476-7.644l-27.229-23.52c-4.199-3.626-10.535-3.16-14.158,1.034
		c-3.624,4.196-3.161,10.535,1.034,14.158l6.814,5.886H91.469c-29.964,0-54.785,22.418-58.674,51.389H17.503
		c-5.543,0-10.038,4.495-10.038,10.038v127.105c0,5.543,4.495,10.038,10.038,10.038h226.363
		c-3.672,17.851-19.466,31.313-38.337,31.313h-62.144l6.336-5.367c4.23-3.584,4.754-9.917,1.171-14.148
		c-3.584-4.229-9.917-4.752-14.148-1.171l-27.229,23.065c-2.238,1.897-3.535,4.678-3.55,7.612c-0.014,2.934,1.256,5.727,3.476,7.644
		l27.229,23.52c1.898,1.639,4.233,2.442,6.557,2.442c2.816,0,5.616-1.178,7.601-3.476c3.624-4.196,3.161-10.535-1.034-14.158
		l-6.814-5.886h62.548c29.964,0,54.785-22.418,58.674-51.389h15.294c5.543,0,10.038-4.495,10.038-10.038V84.948
		C289.535,79.404,285.04,74.91,279.497,74.91z M49.547,202.015L27.541,180.01v-63.02l22.005-22.004h197.907l22.005,22.006v63.017
		l-22.005,22.005H49.547z"/>
	<path d="M148.499,107.004c-22.881,0-41.496,18.616-41.496,41.496s18.616,41.496,41.496,41.496s41.496-18.616,41.496-41.496
		S171.38,107.004,148.499,107.004z M148.499,169.92c-11.811,0-21.42-9.609-21.42-21.42s9.609-21.42,21.42-21.42
		c11.811,0,21.42,9.609,21.42,21.42S160.31,169.92,148.499,169.92z"/>
	<path d="M250.738,158.538c5.543,0,10.038-4.495,10.038-10.038s-4.495-10.038-10.038-10.038H219.28
		c-5.543,0-10.038,4.495-10.038,10.038s4.495,10.038,10.038,10.038H250.738z"/>
	<path d="M77.718,138.462H46.26c-5.543,0-10.038,4.495-10.038,10.038s4.495,10.038,10.038,10.038h31.458
		c5.543,0,10.038-4.495,10.038-10.038S83.261,138.462,77.718,138.462z"/>
</g>
<g>
</g>
<g>
</g>
<g>
</g>
<g>
</g>
<g>
</g>
<g>
</g>
<g>
</g>
<g>
</g>
<g>
</g>
<g>
</g>
<g>
</g>
<g>
</g>
<g>
</g>
<g>
</g>
<g>
</g>
</svg>
