<svg width="90" height="32" viewBox="0 0 90 32" fill="none" xmlns="http://www.w3.org/2000/svg">
<path d="M7.62716 1.61914H0V2.25829C1.87483 2.25829 2.34354 4.17574 2.34354 6.81755V26.2051C2.34354 29.1025 1.78961 30.9774 0 30.9774V31.6165H11.0786V30.9774C9.24634 30.9774 7.62716 30.6365 7.62716 26.1198V1.61914ZM16.49 21.1771H17.1292V11.8029H16.49C16.0639 15.3395 12.6551 15.9361 10.6525 16.0639V16.8735C12.6551 17.0013 16.0639 17.6405 16.49 21.1771ZM10.6525 2.25829C14.4021 2.38612 20.9214 3.19571 21.8162 9.50197H22.4554V1.61914H10.6525V2.25829Z" fill="#2C2D36"/>
<path d="M32.6068 30.9774C31.0728 30.5939 30.8598 29.4008 30.8598 27.0573V0L24.2126 1.36352V2.00266C25.9596 2.47137 26.3431 3.11052 26.3431 4.60187V27.0573C26.3431 29.2304 26.2579 30.5087 24.6387 30.9774V31.6165H32.6068V30.9774Z" fill="#2C2D36"/>
<path d="M38.8746 8.05324C40.2807 8.05324 41.4738 6.94539 41.4738 5.53926C41.4738 4.13314 40.2807 2.98267 38.8746 2.98267C37.4685 2.98267 36.3606 4.13314 36.3606 5.53926C36.3606 6.94539 37.4685 8.05324 38.8746 8.05324ZM43.306 30.9774C41.7721 30.5513 41.559 29.4008 41.559 27.0573V11.5473L34.9119 12.996V13.6352C36.6589 14.3595 37.085 14.9561 37.085 16.4048V27.0573C37.085 29.2304 36.9998 30.466 35.3806 30.9774V31.6165H43.306V30.9774Z" fill="#2C2D36"/>
<path d="M51.9853 27.0998V11.5472L45.3381 13.0385V13.6351C47.0851 14.3594 47.4686 14.8707 47.4686 16.3621V27.0998C47.4686 29.2729 47.3834 30.5086 45.7642 30.9773V31.6164H53.7323V30.9773C52.2409 30.5938 51.9853 29.4433 51.9853 27.0998ZM64.3847 27.0572V18.1943C64.3847 13.0385 62.169 11.5472 58.7602 11.5472C56.8854 11.5472 54.8401 12.655 53.434 14.1038L53.9453 14.8707C54.5418 14.4446 55.2236 14.1464 55.948 14.1464C58.4193 14.1464 59.8681 15.8508 59.8681 18.3221V27.0572C59.8681 29.2303 59.7829 30.5512 58.1637 31.0199V31.6164H66.1317V31.0199C64.5978 30.6364 64.3847 29.4007 64.3847 27.0572Z" fill="#2C2D36"/>
<path d="M80.2592 27.7815C79.9183 28.5485 78.9383 29.4433 77.7026 29.4433C75.6147 29.4433 74.5069 28.2502 74.5069 25.3528V12.5698H79.407L79.5775 11.9307H74.5069V5.32617L69.9902 6.05054V11.9307H67.7319L67.8597 12.5698H69.9902V25.4806C69.9902 30.6364 71.9503 31.9999 75.146 31.9999C77.8305 31.9999 80.0888 30.0398 80.8131 28.1224L80.2592 27.7815Z" fill="#2C2D36"/>
<path d="M86.6917 31.8296C88.3535 31.8296 89.7597 30.466 89.7597 28.7617C89.7597 27.0573 88.3535 25.6937 86.6917 25.6937C84.9873 25.6937 83.6238 27.0573 83.6238 28.7617C83.6238 30.466 84.9873 31.8296 86.6917 31.8296Z" fill="#2C2D36"/>
</svg>
