<svg width="24" height="24" viewBox="0 0 24 24" fill="none" xmlns="http://www.w3.org/2000/svg">
<path fill-rule="evenodd" clip-rule="evenodd" d="M6.73761 10.7581C6.60546 10.7581 6.47568 10.7194 6.36149 10.646C5.91642 10.3593 2.01226 7.76989 2.01226 5.03388C2.00869 4.42755 2.17086 3.83411 2.47759 3.33104C2.78432 2.82797 3.22137 2.43864 3.73167 2.21389C4.24197 1.98913 4.80182 1.93938 5.33814 2.07114C5.87445 2.2029 6.36231 2.51004 6.73803 2.95247C7.1138 2.51038 7.60159 2.20353 8.13776 2.07197C8.67393 1.94041 9.23358 1.99024 9.7437 2.21496C10.2538 2.43968 10.6907 2.82885 10.9974 3.3317C11.3041 3.83456 11.4663 4.42775 11.463 5.03388C11.463 7.76989 7.5588 10.3593 7.11372 10.646C6.99954 10.7194 6.86976 10.7581 6.73761 10.7581ZM5.62937 4.05765C5.39652 3.79788 5.07982 3.65061 4.74872 3.64814C4.41777 3.65061 4.1012 3.79868 3.86838 4.05825C3.63555 4.31782 3.50544 4.66865 3.50657 5.03388C3.50657 6.27302 5.35457 7.99306 6.73803 8.96701C8.12149 7.994 9.96949 6.27302 9.96949 5.03388C9.96949 4.67032 9.83862 4.32166 9.60567 4.06458C9.37273 3.8075 9.05678 3.66308 8.72734 3.66308C8.3979 3.66308 8.08195 3.8075 7.849 4.06458C7.61605 4.32166 7.48519 4.67032 7.48519 5.03388C7.48519 5.14216 7.46586 5.24938 7.42831 5.34942C7.39076 5.44946 7.33573 5.54035 7.26635 5.61692C7.19697 5.69348 7.1146 5.75422 7.02395 5.79566C6.93331 5.83709 6.83615 5.85842 6.73803 5.85842C6.63991 5.85842 6.54276 5.83709 6.45211 5.79566C6.36146 5.75422 6.27909 5.69348 6.20971 5.61692C6.14033 5.54035 6.0853 5.44946 6.04775 5.34942C6.0102 5.24938 5.99088 5.14216 5.99088 5.03388C5.99223 4.66849 5.86222 4.31742 5.62937 4.05765Z" fill="#0ED2CC"/>
<path d="M19.8753 11.5854L22.7809 14.7911L22.7776 14.7921C22.913 14.9478 22.9877 15.1558 22.9857 15.3717C22.9836 15.5875 22.905 15.7938 22.7667 15.9463C22.6283 16.0989 22.4413 16.1855 22.2457 16.1876C22.0502 16.1896 21.8617 16.107 21.7207 15.9574L18.815 12.7508C18.4264 12.3825 17.9415 12.1607 17.4307 12.1177H9.81533C9.71677 12.1191 9.62262 12.163 9.55292 12.2399C9.48323 12.3168 9.44349 12.4207 9.44217 12.5295V12.7769C9.44349 12.8857 9.48323 12.9896 9.55292 13.0665C9.62262 13.1434 9.71677 13.1873 9.81533 13.1887H12.512C12.7678 13.1425 13.0302 13.193 13.2566 13.3321C13.4831 13.4711 13.6603 13.6906 13.7595 13.9548C13.8587 14.2191 13.874 14.5125 13.803 14.7876C13.732 15.0626 13.5788 15.3031 13.3683 15.47L12.4875 16.4421C12.1481 16.7867 11.7464 17.0481 11.3089 17.209C10.8714 17.37 10.4079 17.4268 9.94902 17.3759L3.53941 16.3655C3.24642 16.3282 2.94962 16.3702 2.67464 16.4878L9.19002 19.5693C9.71598 19.7768 10.2823 19.8271 10.8316 19.715L13.5875 18.9549C14.2658 18.7549 14.9306 18.5025 15.5768 18.1995L16.3045 17.8428C16.749 17.6458 17.2363 17.5983 17.7052 17.7063C18.174 17.8143 18.6035 18.073 18.9394 18.4497L21.5735 21.6199C21.6456 21.6984 21.7025 21.7923 21.7407 21.8958C21.779 21.9993 21.7978 22.1103 21.7959 22.222C21.7941 22.3338 21.7717 22.4439 21.7301 22.5458C21.6884 22.6477 21.6285 22.7392 21.5538 22.8148C21.4792 22.8903 21.3914 22.9483 21.2958 22.9853C21.2002 23.0222 21.0988 23.0373 20.9978 23.0296C20.8967 23.022 20.7981 22.9918 20.708 22.9408C20.6179 22.8898 20.5381 22.8191 20.4735 22.733L17.8436 19.5647C17.7202 19.44 17.5687 19.3543 17.4049 19.3167C17.2411 19.2791 17.0711 19.2909 16.9129 19.3508L16.1852 19.7075C15.4605 20.0496 14.7142 20.333 13.9522 20.5554L11.1963 21.3155C10.33 21.5153 9.42991 21.4356 8.60364 21.0858L2.03833 17.9828C1.78869 17.8831 1.56531 17.7168 1.38813 17.4986C1.21095 17.2804 1.08549 17.0172 1.02294 16.7325C0.984509 16.5058 0.997798 16.2722 1.06161 16.0526C1.12543 15.833 1.23776 15.6344 1.38848 15.4747C1.71308 15.1764 2.09074 14.9566 2.49707 14.8294C2.90341 14.7022 3.3294 14.6704 3.74756 14.736L10.158 15.7445C10.6198 15.775 11.0744 15.6077 11.4273 15.2776L11.8249 14.8388H9.81871C9.32364 14.838 8.84903 14.6206 8.49896 14.2343C8.14889 13.848 7.95192 13.3242 7.95125 12.7779V12.5304C7.95192 11.9841 8.14889 11.4603 8.49896 11.074C8.84903 10.6877 9.32364 10.4703 9.81871 10.4696H17.4341C18.3417 10.5117 19.2065 10.907 19.8753 11.5854Z" fill="#0ED2CC"/>
</svg>
