<?xml version="1.0" encoding="iso-8859-1"?>
<!-- Generator: Adobe Illustrator 19.0.0, SVG Export Plug-In . SVG Version: 6.00 Build 0)  -->
<svg version="1.1" id="Capa_1" xmlns="http://www.w3.org/2000/svg" xmlns:xlink="http://www.w3.org/1999/xlink" x="0px" y="0px"
	 viewBox="0 0 512 512" style="enable-background:new 0 0 512 512;" xml:space="preserve">
<g>
	<g>
		<path d="M126,206c-27.57,0-50,22.43-50,50s22.43,50,50,50s50-22.43,50-50S153.57,206,126,206z M126,266c-5.514,0-10-4.486-10-10
			c0-5.514,4.486-10,10-10c5.514,0,10,4.486,10,10C136,261.514,131.514,266,126,266z"/>
	</g>
</g>
<g>
	<g>
		<path d="M505.379,241.134l-50-45C451.707,192.829,446.941,191,442,191H259.767c-23.831-44.758-70.264-73-121.767-73
			C61.907,118,0,179.907,0,256s61.907,138,138,138c51.503,0,97.936-28.242,121.765-73h98.499c5.517,0,10.709-2.272,14.434-6.155
			c3.726,3.883,8.918,6.155,14.434,6.155H442c4.941,0,9.707-1.829,13.379-5.134l50-45C509.594,267.073,512,261.67,512,256
			S509.594,244.927,505.379,241.134z M434.325,281h-35.646l-8.66-15c-3.573-6.188-10.176-10-17.321-10s-13.748,3.812-17.32,10
			l-8.66,15h-99.611c-8.097,0-15.396,4.882-18.486,12.367C213.413,330.2,177.842,354,138,354c-54.037,0-98-43.963-98-98
			s43.963-98,98-98c39.842,0,75.413,23.8,90.621,60.633c3.09,7.485,10.388,12.367,18.486,12.367h187.218l27.778,25L434.325,281z"/>
	</g>
</g>
<g>
</g>
<g>
</g>
<g>
</g>
<g>
</g>
<g>
</g>
<g>
</g>
<g>
</g>
<g>
</g>
<g>
</g>
<g>
</g>
<g>
</g>
<g>
</g>
<g>
</g>
<g>
</g>
<g>
</g>
</svg>
