<svg width="24" height="24" viewBox="0 0 24 24" fill="none" xmlns="http://www.w3.org/2000/svg">
<path d="M10.8752 12C10.8752 12.2984 10.9937 12.5845 11.2047 12.7955C11.4157 13.0065 11.7018 13.125 12.0002 13.125C12.2986 13.125 12.5847 13.0065 12.7957 12.7955C13.0067 12.5845 13.1252 12.2984 13.1252 12C13.1252 11.7016 13.0067 11.4155 12.7957 11.2045C12.5847 10.9935 12.2986 10.875 12.0002 10.875C11.7018 10.875 11.4157 10.9935 11.2047 11.2045C10.9937 11.4155 10.8752 11.7016 10.8752 12V12ZM15.5627 12C15.5627 12.2984 15.6812 12.5845 15.8922 12.7955C16.1032 13.0065 16.3893 13.125 16.6877 13.125C16.9861 13.125 17.2722 13.0065 17.4832 12.7955C17.6942 12.5845 17.8127 12.2984 17.8127 12C17.8127 11.7016 17.6942 11.4155 17.4832 11.2045C17.2722 10.9935 16.9861 10.875 16.6877 10.875C16.3893 10.875 16.1032 10.9935 15.8922 11.2045C15.6812 11.4155 15.5627 11.7016 15.5627 12ZM6.18768 12C6.18768 12.2984 6.30621 12.5845 6.51719 12.7955C6.72817 13.0065 7.01431 13.125 7.31268 13.125C7.61105 13.125 7.8972 13.0065 8.10818 12.7955C8.31916 12.5845 8.43768 12.2984 8.43768 12C8.43768 11.7016 8.31916 11.4155 8.10818 11.2045C7.8972 10.9935 7.61105 10.875 7.31268 10.875C7.01431 10.875 6.72817 10.9935 6.51719 11.2045C6.30621 11.4155 6.18768 11.7016 6.18768 12V12ZM21.6846 7.93125C21.1549 6.67266 20.3955 5.54297 19.4275 4.57266C18.4663 3.60796 17.3253 2.84114 16.0689 2.31563C14.7799 1.77422 13.4111 1.5 12.0002 1.5H11.9533C10.533 1.50703 9.15721 1.78828 7.86346 2.34141C6.6179 2.87232 5.48752 3.64049 4.53534 4.60312C3.57675 5.57109 2.8244 6.69609 2.30409 7.95C1.76503 9.24844 1.49315 10.6289 1.50018 12.0492C1.50814 13.6769 1.89321 15.2806 2.62518 16.7344V20.2969C2.62518 20.5828 2.73877 20.857 2.94096 21.0592C3.14315 21.2614 3.41737 21.375 3.70331 21.375H7.26815C8.72197 22.107 10.3256 22.492 11.9533 22.5H12.0025C13.4064 22.5 14.7682 22.2281 16.0502 21.6961C17.3002 21.1768 18.437 20.419 19.3971 19.4648C20.365 18.5062 21.1267 17.3859 21.6588 16.1367C22.2119 14.843 22.4932 13.4672 22.5002 12.0469C22.5072 10.6195 22.2307 9.23437 21.6846 7.93125V7.93125ZM18.1432 18.1969C16.5002 19.8234 14.3205 20.7188 12.0002 20.7188H11.9603C10.5471 20.7117 9.14315 20.3602 7.90331 19.6992L7.70643 19.5938H4.40643V16.2938L4.30096 16.0969C3.64003 14.857 3.28846 13.4531 3.28143 12.0398C3.27206 9.70313 4.16503 7.50937 5.80331 5.85703C7.43925 4.20469 9.62596 3.29063 11.9627 3.28125H12.0025C13.1744 3.28125 14.3111 3.50859 15.3822 3.95859C16.4275 4.39687 17.365 5.02734 18.1713 5.83359C18.9752 6.6375 19.608 7.57734 20.0463 8.62266C20.501 9.70547 20.7283 10.8539 20.7236 12.0398C20.7096 14.3742 19.7932 16.5609 18.1432 18.1969V18.1969Z" fill="#0ED2CC"/>
</svg>
