<svg width="114" height="32" viewBox="0 0 114 32" fill="none" xmlns="http://www.w3.org/2000/svg">
<path d="M22.9468 3.16528H26.4668L28.3068 9.30928L30.1628 3.16528H33.6668V14.3333H31.0908V7.85328L29.2668 14.3333H27.4268L25.5228 7.85328V14.3333H22.9468V3.16528Z" fill="white"/>
<path d="M35.5879 3.16528V14.3333H38.1639V3.16528H35.5879Z" fill="white"/>
<path d="M41.2886 14.3333H46.2646L47.8006 12.7973V8.46128H43.9286V10.6693H45.2086V12.1253H42.3606V5.37328H45.2086V6.97328H47.8006V4.68528L46.2806 3.16528H41.2726L39.7686 4.66928V12.8133L41.2886 14.3333Z" fill="white"/>
<path d="M48.0417 14.3333H50.7458L51.3857 12.1413H55.0817L55.7217 14.3333H58.4417L54.9377 3.16528H51.5299L48.0417 14.3333ZM52.0578 9.93328L53.2417 6.01328L54.4097 9.93328H52.0578Z" fill="white"/>
<path d="M61.5721 12.1253V3.16528H58.9961V14.3333H65.7321V12.1253H61.5721Z" fill="white"/>
<path d="M67.978 14.3333H72.954L74.49 12.7973V4.70128L72.954 3.16528H67.962L66.458 4.66928V12.8133L67.978 14.3333ZM69.034 12.1253V5.37328H71.898V12.1253H69.034Z" fill="white"/>
<path d="M77.291 14.3333H82.267L83.803 12.7973V4.70128L82.267 3.16528H77.275L75.771 4.66928V12.8133L77.291 14.3333ZM78.347 12.1253V5.37328H81.211V12.1253H78.347Z" fill="white"/>
<path d="M22.9468 30.3333H29.4588L30.9788 28.7973V25.7253L29.9068 24.7493L30.9788 23.7733V20.6853L29.4588 19.1653H22.9468V30.3333ZM25.5388 23.6453V21.3733H28.3868V23.6453H25.5388ZM25.5388 28.1253V25.8533H28.3868V28.1253H25.5388Z" fill="white"/>
<path d="M32.7441 30.3333H35.3201V25.7733H36.0561L38.1201 30.3333H41.0961L39.0321 25.7733L40.5681 24.3333V20.6853L39.0321 19.1653H32.7441V30.3333ZM35.3201 23.6453V21.3733H37.9761V23.6453H35.3201Z" fill="white"/>
<path d="M42.3699 30.3333H49.1059V28.1253H44.9619V25.8533H48.4499V23.6453H44.9619V21.3733H49.0739V19.1653H42.3699V30.3333Z" fill="white"/>
<path d="M49.7522 19.1653H52.4082L53.8962 26.3333L55.3362 19.1653H57.9762L59.4482 26.2693L60.8882 19.1653H63.5602L60.7442 30.3333H58.0562L56.6642 23.8533L55.2242 30.3333H52.5522L49.7522 19.1653Z" fill="white"/>
<path d="M64.4336 19.1653V30.3333H67.0096V19.1653H64.4336Z" fill="white"/>
<path d="M68.9341 30.3333V19.1653H72.5181L74.7581 25.5813V19.1653H77.3181V30.3333H73.7341L71.4941 23.8533V30.3333H68.9341Z" fill="white"/>
<path d="M80.4316 30.3333H85.4076L86.9436 28.7973V24.4613H83.0716V26.6693H84.3516V28.1253H81.5036V21.3733H84.3516V22.9733H86.9436V20.6853L85.4236 19.1653H80.4156L78.9116 20.6693V28.8133L80.4316 30.3333Z" fill="white"/>
<path d="M93.9016 30.3333H98.8936L100.414 28.8133V26.5413H97.8216V28.1413H94.9736V21.3733H97.8216V22.9733H100.414V20.7013L98.8776 19.1653H93.9016L92.3816 20.6853V28.8133L93.9016 30.3333Z" fill="white"/>
<path d="M103.059 30.3333H108.035L109.571 28.7973V20.7013L108.035 19.1653H103.043L101.539 20.6693V28.8133L103.059 30.3333ZM104.115 28.1253V21.3733H106.979V28.1253H104.115Z" fill="white"/>
<path d="M110.852 30.3333H113.204V28.1733H110.852V30.3333Z" fill="white"/>
<path d="M6.83333 0C6.40309 0 6.07407 0.330159 6.07407 0.761905V12.2411C5.21358 11.4284 4.04938 10.9206 2.78395 10.9206H0.759259C0.329012 10.9206 0 11.2508 0 11.6825V13.7143C0 16.381 2.15123 18.5397 4.80864 18.5397H6.07407V23.1111H4.80864C2.98642 23.1111 1.51852 21.6381 1.51852 19.8095V19.0476C1.51852 18.6159 1.18951 18.2857 0.759259 18.2857C0.329012 18.2857 0 18.6159 0 19.0476V19.8095C0 22.4762 2.15123 24.6349 4.80864 24.6349H6.07407V29.2064H4.80864C2.98642 29.2064 1.51852 27.7333 1.51852 25.9048V25.3968C1.51852 24.9651 1.18951 24.6349 0.759259 24.6349C0.329012 24.6349 0 24.9651 0 25.3968V25.9048C0 28.5714 2.15123 30.7302 4.80864 30.7302H6.07407V31.2381C6.07407 31.6698 6.40309 32 6.83333 32C7.26358 32 7.59259 31.6698 7.59259 31.2381V30.7302H8.85803C11.5154 30.7302 13.6667 28.5714 13.6667 25.9048V25.1429C13.6667 24.7111 13.3377 24.381 12.9074 24.381C12.4772 24.381 12.1481 24.7111 12.1481 25.1429V25.9048C12.1481 27.7333 10.6802 29.2064 8.85803 29.2064H7.59259V24.6349H8.85803C11.5154 24.6349 13.6667 22.4762 13.6667 19.8095V19.0476C13.6667 18.6159 13.3377 18.2857 12.9074 18.2857C12.4772 18.2857 12.1481 18.6159 12.1481 19.0476V19.8095C12.1481 21.6381 10.6802 23.1111 8.85803 23.1111H7.59259V18.5397H8.85803C11.5154 18.5397 13.6667 16.381 13.6667 13.7143V11.6825C13.6667 11.2508 13.3377 10.9206 12.9074 10.9206H10.8827C9.61728 10.9206 8.45309 11.4284 7.59259 12.2411V0.761905C7.59259 0.330159 7.26358 0 6.83333 0ZM3.7963 2.53968C3.36605 2.53968 3.03704 2.86984 3.03704 3.30159V8.38095C3.03704 8.8127 3.36605 9.14286 3.7963 9.14286C4.22654 9.14286 4.55556 8.8127 4.55556 8.38095V3.30159C4.55556 2.86984 4.22654 2.53968 3.7963 2.53968ZM9.87037 2.53968C9.44012 2.53968 9.11111 2.86984 9.11111 3.30159V8.38095C9.11111 8.8127 9.44012 9.14286 9.87037 9.14286C10.3006 9.14286 10.6296 8.8127 10.6296 8.38095V3.30159C10.6296 2.86984 10.3006 2.53968 9.87037 2.53968ZM1.51852 12.4444H2.78395C4.60617 12.4444 6.07407 13.9175 6.07407 15.746V17.0159H4.80864C2.98642 17.0159 1.51852 15.5429 1.51852 13.7143V12.4444ZM10.8827 12.4444H12.1481V13.7143C12.1481 15.5429 10.6802 17.0159 8.85803 17.0159H7.59259V15.746C7.59259 13.9175 9.06049 12.4444 10.8827 12.4444Z" fill="white"/>
</svg>
