<?xml version="1.0" encoding="iso-8859-1"?>
<!-- Generator: Adobe Illustrator 19.0.0, SVG Export Plug-In . SVG Version: 6.00 Build 0)  -->
<svg version="1.1" id="Capa_1" xmlns="http://www.w3.org/2000/svg" xmlns:xlink="http://www.w3.org/1999/xlink" x="0px" y="0px"
	 viewBox="0 0 512 512" style="enable-background:new 0 0 512 512;" xml:space="preserve">
<g>
	<g>
		<path d="M492,76H20C8.954,76,0,84.954,0,96v320c0,11.046,8.954,20,20,20h472c11.046,0,20-8.954,20-20V96
			C512,84.954,503.046,76,492,76z M472,396H40V116h432V396z"/>
	</g>
</g>
<g>
	<g>
		<path d="M432,186c-16.542,0-30-13.458-30-30c0-11.046-8.954-20-20-20H130c-11.046,0-20,8.954-20,20c0,16.542-13.458,30-30,30
			c-11.046,0-20,8.954-20,20v100c0,11.046,8.954,20,20,20c16.542,0,30,13.458,30,30c0,11.046,8.954,20,20,20h252
			c11.046,0,20-8.954,20-20c0-16.542,13.458-30,30-30c11.046,0,20-8.954,20-20V206C452,194.954,443.046,186,432,186z
			 M411.999,288.911c-22.543,6.733-40.356,24.546-47.089,47.089H147.089c-6.733-22.543-24.546-40.356-47.089-47.089V223.09
			c22.543-6.733,40.356-24.546,47.089-47.089H364.91c6.733,22.543,24.546,40.356,47.089,47.089V288.911z"/>
	</g>
</g>
<g>
	<g>
		<path d="M256,196c-33.084,0-60,26.916-60,60s26.916,60,60,60c33.084,0,60-26.916,60-60S289.084,196,256,196z M256,276
			c-11.028,0-20-8.972-20-20s8.972-20,20-20s20,8.972,20,20S267.028,276,256,276z"/>
	</g>
</g>
<g>
</g>
<g>
</g>
<g>
</g>
<g>
</g>
<g>
</g>
<g>
</g>
<g>
</g>
<g>
</g>
<g>
</g>
<g>
</g>
<g>
</g>
<g>
</g>
<g>
</g>
<g>
</g>
<g>
</g>
</svg>
