<svg width="124" height="32" viewBox="0 0 124 32" fill="none" xmlns="http://www.w3.org/2000/svg">
<path d="M34.2307 10.4853C34.4616 11.3426 34.5936 12.1669 34.6266 12.9583C34.6595 13.4199 34.676 13.898 34.676 14.3926C34.709 14.8872 34.7255 15.3653 34.7255 15.8269C34.7255 16.2885 34.7255 16.7501 34.7255 17.2117C34.7255 17.6734 34.6925 18.135 34.6266 18.5966C34.5936 18.9923 34.5606 19.3879 34.5276 19.7836C34.4946 20.1793 34.4451 20.5585 34.3791 20.9212C34.2142 21.5806 34.0162 22.2071 33.7853 22.8006C33.5544 23.3941 33.2575 23.9711 32.8946 24.5317C32.8286 24.6636 32.7461 24.7955 32.6471 24.9274C32.5482 25.0263 32.4657 25.1252 32.3997 25.2241C32.2348 25.4219 32.0533 25.6198 31.8554 25.8176C31.6904 26.0155 31.509 26.1968 31.311 26.3617C30.9151 26.7244 30.4368 27.0706 29.8759 27.4003C29.2161 27.796 28.5893 28.1257 27.9955 28.3895C27.6986 28.5544 27.3852 28.7027 27.0553 28.8346C26.7583 28.9335 26.4449 29.0489 26.115 29.1808C25.8181 29.2798 25.5212 29.3952 25.2243 29.527C24.9274 29.626 24.6305 29.7249 24.3335 29.8238C23.3438 30.1865 22.3541 30.5162 21.3644 30.813C20.4077 31.1097 19.4345 31.4065 18.4448 31.7032C18.2798 31.7692 18.1149 31.8187 17.9499 31.8516C17.8179 31.8846 17.6695 31.9341 17.5045 32L16.6138 31.7032C15.855 31.4724 15.1127 31.2581 14.3869 31.0603C13.6611 30.8295 12.9354 30.5822 12.2096 30.3184C11.6487 30.1535 11.0879 29.9722 10.5271 29.7743C9.9992 29.5765 9.45486 29.3787 8.89403 29.1808C8.43216 28.983 7.97029 28.8016 7.50843 28.6368C7.07955 28.4389 6.63418 28.2081 6.17231 27.9444C5.84241 27.7795 5.51251 27.5981 5.1826 27.4003C4.8527 27.2025 4.53929 26.9882 4.24237 26.7573C3.74752 26.3617 3.31864 25.966 2.95575 25.5703C2.79079 25.4055 2.64234 25.2406 2.51038 25.0757C2.4114 24.9109 2.29594 24.746 2.16398 24.5811C1.83407 24.0206 1.55365 23.493 1.32272 22.9985C1.22375 22.7347 1.12478 22.4709 1.02581 22.2071C0.926836 21.9433 0.844359 21.6631 0.778379 21.3663C0.712398 21.1025 0.662912 20.8552 0.629922 20.6244C0.596931 20.3606 0.563941 20.0969 0.53095 19.8331C0.431979 19.1736 0.365998 18.5307 0.333008 17.9042C0.333008 17.2777 0.333008 16.6347 0.333008 15.9753C0.333008 15.5137 0.333008 15.0355 0.333008 14.541C0.333008 14.0464 0.349503 13.5683 0.382493 13.1066C0.481465 12.1834 0.629922 11.3096 0.827864 10.4853C0.893845 10.1556 0.976321 9.84235 1.07529 9.54559C1.20725 9.21587 1.33922 8.90263 1.47118 8.60587C1.63613 8.30912 1.80108 8.01237 1.96603 7.71561C2.13099 7.41886 2.32893 7.13859 2.55986 6.87481C3.02173 6.31427 3.50009 5.83617 3.99495 5.4405C4.19289 5.27563 4.37434 5.12725 4.53929 4.99536C4.73723 4.86347 4.95167 4.73158 5.1826 4.59969C5.5455 4.36888 5.90839 4.17104 6.27129 4.00618C6.63418 3.80835 6.99707 3.627 7.35997 3.46213C7.92081 3.19835 8.46515 2.96754 8.993 2.76971C9.52084 2.57187 10.0652 2.39052 10.626 2.22566C11.6157 1.86296 12.6054 1.53323 13.5952 1.23647C14.5849 0.906748 15.5911 0.593508 16.6138 0.296753L17.5045 0C17.6695 0.0659445 17.8179 0.115403 17.9499 0.148375C18.1149 0.181349 18.2798 0.230809 18.4448 0.296753C19.4675 0.593508 20.4737 0.906748 21.4634 1.23647C22.4531 1.53323 23.4593 1.86296 24.482 2.22566C24.7789 2.32457 25.0758 2.43998 25.3727 2.57187C25.7026 2.67079 26.0161 2.76971 26.313 2.86862C26.6429 3.00051 26.9563 3.1324 27.2532 3.2643C27.5501 3.39619 27.8635 3.54456 28.1934 3.70943C28.8862 4.03915 29.513 4.38537 30.0739 4.74807C30.4038 4.9459 30.7502 5.1932 31.1131 5.48995C31.6739 5.95157 32.1688 6.46265 32.5976 7.02318C32.9935 7.51777 33.3234 8.06182 33.5874 8.65533C33.8513 9.21587 34.0657 9.82586 34.2307 10.4853ZM32.8946 18.4977C32.9276 18.168 32.944 17.8382 32.944 17.5085C32.944 17.1788 32.944 16.8326 32.944 16.4699V14.442C32.9111 14.0793 32.8946 13.7331 32.8946 13.4034C32.8946 13.0737 32.8616 12.7439 32.7956 12.4142C32.7296 12.1175 32.6636 11.8207 32.5976 11.524C32.5647 11.2272 32.5152 10.9469 32.4492 10.6832C32.2512 9.95775 31.9543 9.26533 31.5585 8.60587C31.2285 8.11128 30.9151 7.71561 30.6182 7.41885C30.4863 7.28696 30.3543 7.17156 30.2223 7.07264C30.1234 6.97372 30.0079 6.87481 29.8759 6.77589C29.711 6.61102 29.5295 6.46265 29.3316 6.33076C29.1337 6.19887 28.9357 6.08346 28.7378 5.98454C28.5068 5.85265 28.2924 5.73725 28.0945 5.63833C27.8965 5.50644 27.6821 5.39104 27.4511 5.29212C27.2532 5.1932 27.0388 5.09428 26.8078 4.99536C26.5769 4.89644 26.346 4.79753 26.115 4.69861C25.5872 4.4678 25.0428 4.26996 24.482 4.1051C23.9542 3.90726 23.4098 3.70943 22.849 3.51159C22.0242 3.24781 21.1995 3.00051 20.3747 2.76971C19.5829 2.50592 18.7747 2.24214 17.9499 1.97836L17.5045 1.82998C17.4385 1.86296 17.3066 1.91242 17.1086 1.97836C16.2179 2.24214 15.3272 2.52241 14.4364 2.81916C13.5457 3.08295 12.6714 3.36321 11.8137 3.65997C11.3848 3.82483 10.9724 3.97321 10.5765 4.1051C10.1807 4.23699 9.76827 4.38537 9.3394 4.55023C9.14145 4.61618 8.92701 4.69861 8.69608 4.79753C8.49814 4.86347 8.3002 4.9459 8.10225 5.04482C7.47544 5.3086 6.81563 5.65482 6.12283 6.08346C5.92489 6.21535 5.71045 6.36373 5.47951 6.52859C5.28157 6.66048 5.10013 6.80886 4.93517 6.97372C4.80321 7.07264 4.68774 7.17156 4.58877 7.27048C4.4898 7.3694 4.39083 7.46831 4.29186 7.56723C3.82999 8.02885 3.48359 8.52344 3.25266 9.05101C3.02173 9.47965 2.84028 9.90829 2.70832 10.3369C2.57636 10.7326 2.46089 11.1613 2.36192 11.6229C2.22996 12.3483 2.14748 13.0737 2.11449 13.7991C2.11449 14.5245 2.11449 15.2499 2.11449 15.9753C2.11449 16.6347 2.11449 17.2777 2.11449 17.9042C2.14748 18.4977 2.19697 19.1242 2.26295 19.7836C2.32893 20.2123 2.4114 20.6409 2.51038 21.0696C2.64234 21.4652 2.79079 21.8774 2.95575 22.306C3.15369 22.7676 3.40112 23.2293 3.69803 23.6909C3.99495 24.1195 4.34135 24.5152 4.73723 24.8779C5.06713 25.1747 5.41353 25.4384 5.77643 25.6692C6.13932 25.9001 6.51871 26.1309 6.9146 26.3617C7.27749 26.5595 7.65688 26.7573 8.05277 26.9552C8.48164 27.12 8.91052 27.2849 9.3394 27.4498C9.90023 27.6806 10.4281 27.8949 10.9229 28.0927C11.4508 28.2576 11.9951 28.4225 12.556 28.5873C13.3147 28.8511 14.0735 29.0984 14.8323 29.3292C15.5911 29.56 16.3499 29.7908 17.1086 30.0216C17.3066 30.0876 17.4385 30.1206 17.5045 30.1206C17.6035 30.1206 17.752 30.0876 17.9499 30.0216C18.7747 29.7579 19.5829 29.5106 20.3747 29.2798C21.1995 29.016 22.0242 28.7522 22.849 28.4884C23.2779 28.3235 23.6902 28.1752 24.0861 28.0433C24.515 27.8784 24.9439 27.7135 25.3727 27.5487C26.3625 27.186 27.2862 26.7903 28.1439 26.3617C28.5398 26.1309 28.9192 25.9001 29.2821 25.6692C29.678 25.4055 30.0409 25.1252 30.3708 24.8284C30.5357 24.6636 30.7007 24.4987 30.8657 24.3338C31.0306 24.136 31.1791 23.9382 31.311 23.7403C31.542 23.4436 31.7234 23.1303 31.8554 22.8006C32.0203 22.4709 32.1688 22.1412 32.3007 21.8114C32.6306 20.7893 32.8286 19.6847 32.8946 18.4977ZM29.7275 8.30912C29.7935 8.37506 29.8429 8.44101 29.8759 8.50695C29.9419 8.53993 30.0079 8.58939 30.0739 8.65533C30.4698 9.1829 30.7667 9.75992 30.9646 10.3864C31.1956 10.9799 31.3605 11.6064 31.4595 12.2658C31.5585 12.8923 31.6079 13.5188 31.6079 14.1453C31.6409 14.7718 31.6574 15.3818 31.6574 15.9753C31.6574 16.5688 31.6409 17.1953 31.6079 17.8547C31.6079 18.4812 31.5585 19.1242 31.4595 19.7836C31.3605 20.4101 31.1956 21.0366 30.9646 21.6631C30.7667 22.2566 30.4698 22.8171 30.0739 23.3447C29.579 23.9711 28.9192 24.5152 28.0945 24.9768V22.0093C28.0945 22.0093 28.1274 21.9598 28.1934 21.8609C28.4244 21.5641 28.6223 21.2179 28.7873 20.8223C28.8532 20.5914 28.9192 20.3606 28.9852 20.1298C29.0512 19.899 29.1007 19.6517 29.1337 19.3879C29.2326 18.8274 29.2821 18.2669 29.2821 17.7063C29.3151 17.1128 29.3316 16.5358 29.3316 15.9753C29.3316 15.7774 29.3316 15.5796 29.3316 15.3818C29.3316 15.151 29.3151 14.9201 29.2821 14.6893L27.7975 17.9042L25.7191 12.5131V26.1638C25.3892 26.2957 25.0263 26.4276 24.6305 26.5595C24.2676 26.6914 23.8552 26.8398 23.3933 27.0046V4.9459C24.35 5.27563 25.1253 5.57239 25.7191 5.83617L28.045 11.9196L29.7275 8.30912ZM19.8798 3.80834C20.3087 3.94024 20.7046 4.07213 21.0675 4.20402C21.4634 4.33591 21.8428 4.45131 22.2057 4.55023V27.4498C21.5788 27.6806 20.8036 27.9279 19.8798 28.1917V10.2875L17.5045 16.272L15.1787 10.2875V28.1917C14.321 27.9608 13.5292 27.7136 12.8034 27.4498V4.55023C13.1663 4.45131 13.5457 4.33591 13.9416 4.20402C14.3374 4.07213 14.7498 3.94024 15.1787 3.80834L17.5045 9.84235L19.8798 3.80834ZM9.28991 5.83617C9.98271 5.53941 10.7745 5.24266 11.6652 4.9459V27.0046C11.2034 26.8398 10.7745 26.6914 10.3786 26.5595C10.0157 26.4276 9.6528 26.2957 9.28991 26.1638V12.5131L7.261 17.9042L5.72694 14.6893V15.9753C5.72694 16.5358 5.72694 17.1128 5.72694 17.7063C5.75993 18.2669 5.80942 18.8274 5.8754 19.3879C5.94138 19.6517 5.99087 19.899 6.02386 20.1298C6.08984 20.3606 6.17231 20.5914 6.27129 20.8223C6.37026 21.185 6.5517 21.5312 6.81563 21.8609C6.84862 21.9598 6.8981 22.0093 6.96408 22.0093V24.9768C6.13932 24.5152 5.47951 23.9711 4.98466 23.3447C4.1599 22.2895 3.68154 21.1025 3.54957 19.7836C3.41761 18.4317 3.35163 17.1623 3.35163 15.9753C3.35163 15.3818 3.35163 14.7718 3.35163 14.1453C3.38462 13.5188 3.4506 12.8923 3.54957 12.2658C3.64855 11.6064 3.8135 10.9799 4.04443 10.3864C4.27536 9.75992 4.58877 9.1829 4.98466 8.65533C5.05064 8.58939 5.10012 8.53993 5.13312 8.50695C5.16611 8.44101 5.21559 8.37506 5.28157 8.30912L7.01357 11.9196L9.28991 5.83617Z" fill="white"/>
<path d="M42.6592 11.9354V20.6355H44.4434V14.9516H44.5156L46.7671 20.593H47.982L50.2335 14.9728H50.3057V20.6355H52.0899V11.9354H49.8214L47.4255 17.7808H47.3236L44.9276 11.9354H42.6592Z" fill="white"/>
<path d="M61.3613 16.2855C61.3613 13.4393 59.5941 11.8165 57.2874 11.8165C54.9679 11.8165 53.2134 13.4393 53.2134 16.2855C53.2134 19.1189 54.9679 20.7545 57.2874 20.7545C59.5941 20.7545 61.3613 19.1317 61.3613 16.2855ZM59.4964 16.2855C59.4964 18.1291 58.6213 19.1274 57.2874 19.1274C55.9492 19.1274 55.0783 18.1291 55.0783 16.2855C55.0783 14.4418 55.9492 13.4435 57.2874 13.4435C58.6213 13.4435 59.4964 14.4418 59.4964 16.2855Z" fill="white"/>
<path d="M69.7616 11.9354H67.9306V17.407H67.8542L64.0989 11.9354H62.4846V20.6355H64.324V15.1597H64.3877L68.1728 20.6355H69.7616V11.9354Z" fill="white"/>
<path d="M79.0368 16.2855C79.0368 13.4393 77.2696 11.8165 74.9629 11.8165C72.6434 11.8165 70.8889 13.4393 70.8889 16.2855C70.8889 19.1189 72.6434 20.7545 74.9629 20.7545C77.2696 20.7545 79.0368 19.1317 79.0368 16.2855ZM77.1719 16.2855C77.1719 18.1291 76.2968 19.1274 74.9629 19.1274C73.6247 19.1274 72.7538 18.1291 72.7538 16.2855C72.7538 14.4418 73.6247 13.4435 74.9629 13.4435C76.2968 13.4435 77.1719 14.4418 77.1719 16.2855Z" fill="white"/>
<path d="M85.9291 14.7477H87.7983C87.5604 13.0272 86.0438 11.8165 84.0769 11.8165C81.7787 11.8165 80.0073 13.4732 80.0073 16.294C80.0073 19.0467 81.664 20.7545 84.1152 20.7545C86.3114 20.7545 87.879 19.3653 87.879 17.0756V15.9796H84.2384V17.3645H86.1075C86.082 18.4435 85.3471 19.1274 84.1237 19.1274C82.743 19.1274 81.8722 18.0952 81.8722 16.277C81.8722 14.4673 82.777 13.4435 84.1067 13.4435C85.054 13.4435 85.6955 13.932 85.9291 14.7477Z" fill="white"/>
<path d="M89.0215 20.6355H90.8609V17.5514H92.2033L93.8516 20.6355H95.8822L94.0342 17.254C95.0241 16.8292 95.5721 15.9669 95.5721 14.7774C95.5721 13.0484 94.4293 11.9354 92.454 11.9354H89.0215V20.6355ZM90.8609 16.0731V13.4393H92.1014C93.1634 13.4393 93.6774 13.9108 93.6774 14.7774C93.6774 15.6398 93.1634 16.0731 92.1099 16.0731H90.8609Z" fill="white"/>
<path d="M98.1322 20.6355L98.7779 18.6517H101.917L102.563 20.6355H104.534L101.535 11.9354H99.1645L96.1611 20.6355H98.1322ZM99.2452 17.2158L100.316 13.9235H100.384L101.454 17.2158H99.2452Z" fill="white"/>
<path d="M105.342 11.9354V20.6355H107.126V14.9516H107.198L109.45 20.593H110.665L112.916 14.9728H112.989V20.6355H114.773V11.9354H112.504L110.108 17.7808H110.006L107.61 11.9354H105.342Z" fill="white"/>
<path d="M117.549 20.6355L118.194 18.6517H121.334L121.979 20.6355H123.95L120.951 11.9354H118.581L115.577 20.6355H117.549ZM118.662 17.2158L119.732 13.9235H119.8L120.871 17.2158H118.662Z" fill="white"/>
</svg>
