<?xml version="1.0" encoding="iso-8859-1"?>
<!-- Generator: Adobe Illustrator 19.0.0, SVG Export Plug-In . SVG Version: 6.00 Build 0)  -->
<svg version="1.1" id="Capa_1" xmlns="http://www.w3.org/2000/svg" xmlns:xlink="http://www.w3.org/1999/xlink" x="0px" y="0px"
	 viewBox="0 0 512 512" style="enable-background:new 0 0 512 512;" xml:space="preserve">
<g>
	<g>
		<path d="M436,0H76C64.954,0,56,8.954,56,20v472c0,11.046,8.954,20,20,20h360c11.046,0,20-8.954,20-20V20
			C456,8.954,447.046,0,436,0z M416,472H96V40h320V472z"/>
	</g>
</g>
<g>
	<g>
		<path d="M246,370H146c-11.046,0-20,8.954-20,20c0,11.046,8.954,20,20,20h100c11.046,0,20-8.954,20-20
			C266,378.954,257.046,370,246,370z"/>
	</g>
</g>
<g>
	<g>
		<path d="M366,290H146c-11.046,0-20,8.954-20,20c0,11.046,8.954,20,20,20h220c11.046,0,20-8.954,20-20
			C386,298.954,377.046,290,366,290z"/>
	</g>
</g>
<g>
	<g>
		<path d="M366,70H146c-11.046,0-20,8.954-20,20v140c0,11.046,8.954,20,20,20h220c11.046,0,20-8.954,20-20V90
			C386,78.954,377.046,70,366,70z M346,210H166V110h180V210z"/>
	</g>
</g>
<g>
</g>
<g>
</g>
<g>
</g>
<g>
</g>
<g>
</g>
<g>
</g>
<g>
</g>
<g>
</g>
<g>
</g>
<g>
</g>
<g>
</g>
<g>
</g>
<g>
</g>
<g>
</g>
<g>
</g>
</svg>
