<svg width="36" height="36" viewBox="0 0 36 36" fill="none" xmlns="http://www.w3.org/2000/svg">
<path d="M21.2625 20.475C20.7 21.0375 20.25 21.7125 19.8 22.5C17.55 20.5875 15.4125 18.5625 13.5 16.2C14.2875 15.8625 14.9625 15.3 15.525 14.7375C18.1125 12.15 17.2125 8.775 14.625 6.1875C12.0375 3.6 8.66251 2.5875 6.07501 5.175C3.48751 7.7625 3.03751 12.6 5.17501 15.6375C8.88751 21.375 14.625 27.1125 20.3625 30.9375C23.4 32.9625 28.2375 32.625 30.825 30.0375C33.4125 27.45 32.5125 24.075 29.925 21.4875C27.3375 18.9 23.9625 17.775 21.2625 20.475Z" stroke="white" stroke-width="2" stroke-miterlimit="10" stroke-linejoin="round"/>
</svg>
