<svg width="24" height="24" viewBox="0 0 24 24" fill="none" xmlns="http://www.w3.org/2000/svg">
<path d="M14.175 13.65C13.8 14.025 13.5 14.475 13.2 15C11.7 13.725 10.275 12.375 9.00005 10.8C9.52505 10.575 9.97505 10.2 10.35 9.82501C12.075 8.10001 11.475 5.85001 9.75005 4.12501C8.02505 2.40001 5.77505 1.72501 4.05005 3.45001C2.32505 5.17501 2.02505 8.40001 3.45005 10.425C5.92505 14.25 9.75005 18.075 13.575 20.625C15.6 21.975 18.825 21.75 20.55 20.025C22.275 18.3 21.675 16.05 19.95 14.325C18.225 12.6 15.975 11.85 14.175 13.65Z" stroke="#E14817" stroke-width="2" stroke-miterlimit="10" stroke-linejoin="round"/>
</svg>
