<svg width="24" height="24" viewBox="0 0 24 24" fill="none" xmlns="http://www.w3.org/2000/svg">
<path d="M23.9977 16.1693C23.9821 15.9811 23.8877 15.8082 23.7376 15.6928L19.5845 12.5014C19.3147 12.2941 18.9319 12.3202 18.6929 12.5621L18.3464 12.9128L17.3456 12.1053L16.1641 2.8752C16.1637 2.87198 16.1633 2.86871 16.1628 2.86549C16.0108 1.80198 15.0833 1 14.0054 1C13.4219 1 12.8916 1.2302 12.5 1.6037C12.1084 1.2302 11.5782 1 10.9947 1C9.91671 1 8.98921 1.80198 8.83724 2.86549C8.83675 2.86871 8.8363 2.87198 8.83594 2.8752L7.65441 12.1054L6.65364 12.9129L6.3072 12.5622C6.06822 12.3202 5.68539 12.2941 5.41555 12.5015L1.2624 15.6929C1.11231 15.8082 1.01793 15.9811 1.0023 16.1693C0.986665 16.3575 1.05131 16.5435 1.18028 16.6819L5.94006 21.7857C6.06503 21.9196 6.2395 21.9971 6.4231 21.9999C6.4266 22 6.43011 22 6.43361 22C6.61343 22 6.78598 21.9283 6.91261 21.8008L10.7157 17.97C10.975 17.7088 10.9756 17.2884 10.7169 17.0266L10.4972 16.8042L12.5 14.8084L14.5027 16.8042L14.283 17.0266C14.0244 17.2885 14.0249 17.7088 14.2842 17.97L18.0873 21.8008C18.2139 21.9284 18.3865 22 18.5663 22C18.5698 22 18.5733 22 18.5768 21.9999C18.7604 21.9971 18.9349 21.9196 19.0599 21.7857L23.8196 16.6818C23.9487 16.5435 24.0133 16.3575 23.9977 16.1693ZM6.44884 20.3584L2.67042 16.3068L5.76558 13.9283L9.29005 17.4965L6.44884 20.3584ZM11.6003 13.8056L9.55186 15.8471L7.60346 13.8745L8.71254 12.9796C8.84744 12.8708 8.93499 12.7142 8.95696 12.5427L10.172 3.05078C10.2317 2.64697 10.5847 2.34304 10.9946 2.34304C11.4531 2.34304 11.8262 2.7148 11.8262 3.17175V13.2622C11.8262 13.4675 11.7459 13.6605 11.6003 13.8056ZM13.3998 13.8057C13.2541 13.6605 13.1739 13.4674 13.1739 13.2621V3.17175C13.1739 2.7148 13.5469 2.34304 14.0054 2.34304C14.4154 2.34304 14.7683 2.64697 14.8281 3.05078L16.0431 12.5427C16.065 12.7142 16.1526 12.8708 16.2875 12.9796L17.3965 13.8745L15.4482 15.8471L13.3998 13.8057ZM18.5511 20.3584L15.7099 17.4965L19.2344 13.9283L22.3295 16.3068L18.5511 20.3584Z" fill="#0ED2CC"/>
</svg>
