<svg width="36" height="36" viewBox="0 0 36 36" fill="none" xmlns="http://www.w3.org/2000/svg">
<path d="M3.375 21.375H15.75" stroke="white" stroke-width="2" stroke-miterlimit="10" stroke-linecap="round" stroke-linejoin="round"/>
<path d="M9 32.625H16.875" stroke="white" stroke-width="2" stroke-miterlimit="10" stroke-linecap="round" stroke-linejoin="round"/>
<path d="M30.375 4.5H5.625C4.3875 4.5 3.375 5.5125 3.375 6.75V23.625C3.375 24.8625 4.3875 25.875 5.625 25.875H14.625C14.625 28.2375 13.8375 31.05 12.6 32.625" stroke="white" stroke-width="2" stroke-miterlimit="10" stroke-linecap="round" stroke-linejoin="round"/>
<path d="M29.25 32.625H22.5C21.2625 32.625 20.25 31.6125 20.25 30.375V12.375C20.25 11.1375 21.2625 10.125 22.5 10.125H29.25C30.4875 10.125 31.5 11.1375 31.5 12.375V30.375C31.5 31.6125 30.4875 32.625 29.25 32.625Z" stroke="white" stroke-width="2" stroke-miterlimit="10" stroke-linecap="round" stroke-linejoin="round"/>
<path d="M23.625 28.125H28.125" stroke="white" stroke-width="2" stroke-miterlimit="10" stroke-linecap="round" stroke-linejoin="round"/>
<path d="M28.125 10.125V11.5875C28.125 12.6 27.225 13.5 26.2125 13.5H25.5375C24.525 13.5 23.625 12.6 23.625 11.5875V10.125" stroke="white" stroke-width="2" stroke-miterlimit="10" stroke-linecap="round" stroke-linejoin="round"/>
</svg>
