<svg width="85" height="30" viewBox="0 0 85 30" fill="none" xmlns="http://www.w3.org/2000/svg">
<path d="M9.85116 24.1066C8.30834 24.1066 6.86975 23.8349 5.53542 23.2915C4.20108 22.7482 3.05438 21.9854 2.09533 21.0031C1.13627 20.0209 0.43783 18.8715 0 17.5549L4.06556 15.6426C4.62848 17.001 5.4416 18.046 6.5049 18.7774C7.58904 19.5089 8.70447 19.8746 9.85116 19.8746C11.0396 19.8746 11.9673 19.6343 12.6345 19.1536C13.3017 18.6729 13.6353 18.0878 13.6353 17.3981C13.6353 16.7921 13.4372 16.3114 13.0411 15.9561C12.6449 15.5799 12.1029 15.2874 11.4148 15.0784L6.66126 13.5737C4.68061 12.9467 3.21075 12.0794 2.25169 10.9718C1.29264 9.84326 0.813112 8.50575 0.813112 6.95925C0.813112 5.55904 1.15712 4.34692 1.84514 3.32288C2.55401 2.27795 3.53391 1.4629 4.78485 0.877743C6.03579 0.292581 7.50565 0 9.19442 0C10.6955 0 12.0612 0.261233 13.2913 0.783698C14.5213 1.28527 15.5742 1.98537 16.4499 2.88401C17.3464 3.76176 18.0031 4.77534 18.4201 5.92476L14.3546 7.83699C13.9584 6.72936 13.3121 5.85162 12.4156 5.20376C11.5191 4.5559 10.4454 4.23197 9.19442 4.23197C8.13112 4.23197 7.27631 4.47231 6.62999 4.95298C5.98367 5.43365 5.66051 6.03971 5.66051 6.77116C5.66051 7.87879 6.43192 8.67294 7.97475 9.1536L12.6032 10.5956C14.563 11.2017 16.0329 12.0376 17.0128 13.1034C17.9927 14.1693 18.4827 15.5068 18.4827 17.116C18.4827 18.5162 18.1178 19.7388 17.3881 20.7837C16.6792 21.8286 15.6785 22.6437 14.3858 23.2288C13.0932 23.814 11.5816 24.1066 9.85116 24.1066Z" fill="#2C2D36"/>
<path d="M20.3742 30V6.61442H24.7525V8.40125C25.9618 6.95925 27.7027 6.23824 29.9752 6.23824C31.6014 6.23824 33.0609 6.63532 34.3535 7.42947C35.667 8.22361 36.7094 9.29989 37.4808 10.6583C38.2523 11.9958 38.638 13.5005 38.638 15.1724C38.638 16.8234 38.2523 18.3281 37.4808 19.6865C36.7303 21.0449 35.6983 22.1212 34.3848 22.9154C33.0713 23.7095 31.591 24.1066 29.9439 24.1066C28.9432 24.1066 28.0258 23.9603 27.1918 23.6677C26.3579 23.3542 25.649 22.9258 25.0652 22.3824V30H20.3742ZM29.381 19.8746C30.6736 19.8746 31.7265 19.4357 32.5396 18.558C33.3736 17.6594 33.7906 16.5308 33.7906 15.1724C33.7906 13.814 33.3736 12.6959 32.5396 11.8182C31.7265 10.9195 30.6736 10.4702 29.381 10.4702C28.1092 10.4702 27.0668 10.9091 26.2536 11.7868C25.4614 12.6646 25.0652 13.7931 25.0652 15.1724C25.0652 16.5517 25.4614 17.6802 26.2536 18.558C27.0668 19.4357 28.1092 19.8746 29.381 19.8746Z" fill="#2C2D36"/>
<path d="M45.59 24.1066C44.2973 24.1066 43.1715 23.8871 42.2124 23.4483C41.2742 22.9885 40.5445 22.3824 40.0233 21.6301C39.5229 20.8568 39.2727 20 39.2727 19.0596C39.2727 17.7847 39.7522 16.7398 40.7113 15.9248C41.6704 15.0888 43.0151 14.4932 44.7456 14.1379L50.0934 13.0094V12.4451C50.0934 11.7973 49.8536 11.2853 49.3741 10.9091C48.8945 10.512 48.2586 10.3135 47.4664 10.3135C46.6324 10.3135 45.8923 10.5434 45.246 11.0031C44.6205 11.442 44.1827 12.0481 43.9325 12.8213L39.8982 10.8777C40.3986 9.45663 41.3263 8.32811 42.6815 7.49216C44.0576 6.65622 45.6525 6.23824 47.4664 6.23824C48.9258 6.23824 50.1976 6.49948 51.2818 7.02194C52.3868 7.54441 53.2416 8.27586 53.8462 9.2163C54.4717 10.1358 54.7844 11.2121 54.7844 12.4451V23.7304H50.4061V22.163C49.7598 22.8527 49.0405 23.3542 48.2482 23.6677C47.4768 23.9603 46.5907 24.1066 45.59 24.1066ZM44.1201 18.9969C44.1201 19.5193 44.3182 19.9269 44.7143 20.2194C45.1104 20.512 45.6421 20.6583 46.3093 20.6583C47.3726 20.6583 48.2691 20.3239 48.9988 19.6552C49.7285 18.9864 50.0934 18.1714 50.0934 17.21V16.395L45.59 17.3981C44.6101 17.628 44.1201 18.1609 44.1201 18.9969Z" fill="#2C2D36"/>
<path d="M56.6576 23.7304V6.61442H61.0359V9.18495C61.4738 8.11912 62.0888 7.39812 62.8811 7.02194C63.6942 6.62487 64.622 6.42633 65.6644 6.42633H67.447V10.5016H65.1953C64.0486 10.5016 63.1208 10.8568 62.412 11.5674C61.7031 12.2571 61.3487 13.2393 61.3487 14.5141V23.7304H56.6576Z" fill="#2C2D36"/>
<path d="M68.7065 23.7304V0.376174H73.3975V13.1034L79.5271 6.61442H85L78.8078 13.511L85 23.7304H79.9024L75.7743 16.8652L73.3975 19.4357V23.7304H68.7065Z" fill="#2C2D36"/>
</svg>
