<svg width="24" height="24" viewBox="0 0 24 24" fill="none" xmlns="http://www.w3.org/2000/svg">
<path d="M19.3176 16.4039C18.731 15.8168 18.0455 15.3376 17.2926 14.9883C18.3543 14.1281 19.0317 12.8156 19.0317 11.3437C19.0317 8.74685 16.866 6.61638 14.2692 6.65623C11.7121 6.69607 9.65198 8.77967 9.65198 11.3437C9.65198 12.8156 10.3317 14.1281 11.391 14.9883C10.638 15.3373 9.9525 15.8165 9.36604 16.4039C8.08636 17.6859 7.35979 19.3781 7.31292 21.1828C7.31229 21.2078 7.31668 21.2327 7.32582 21.256C7.33496 21.2793 7.34868 21.3005 7.36615 21.3184C7.38362 21.3363 7.40451 21.3506 7.42757 21.3603C7.45062 21.37 7.4754 21.375 7.50042 21.375H8.81292C8.9137 21.375 8.99807 21.2953 9.00042 21.1945C9.04495 19.8351 9.59573 18.5625 10.5637 17.5969C11.059 17.0989 11.6482 16.7041 12.2971 16.4354C12.946 16.1666 13.6418 16.0293 14.3442 16.0312C15.7715 16.0312 17.1145 16.5867 18.1246 17.5969C19.0903 18.5625 19.641 19.8351 19.6879 21.1945C19.6903 21.2953 19.7746 21.375 19.8754 21.375H21.1879C21.2129 21.375 21.2377 21.37 21.2608 21.3603C21.2838 21.3506 21.3047 21.3363 21.3222 21.3184C21.3397 21.3005 21.3534 21.2793 21.3625 21.256C21.3717 21.2327 21.376 21.2078 21.3754 21.1828C21.3285 19.3781 20.602 17.6859 19.3176 16.4039ZM14.3442 14.3437C13.5426 14.3437 12.7879 14.032 12.2231 13.4648C11.9396 13.1836 11.7157 12.8481 11.5647 12.4785C11.4137 12.1088 11.3387 11.7125 11.3442 11.3133C11.3512 10.5445 11.6582 9.80154 12.1949 9.25076C12.7574 8.6742 13.5098 8.3531 14.3137 8.34373C15.1082 8.3367 15.8793 8.64607 16.4465 9.20154C17.0278 9.77107 17.3465 10.5328 17.3465 11.3437C17.3465 12.1453 17.0348 12.8976 16.4676 13.4648C16.1893 13.7444 15.8584 13.9661 15.4939 14.1169C15.1294 14.2678 14.7386 14.3449 14.3442 14.3437ZM8.47307 11.9625C8.45198 11.7586 8.44026 11.5523 8.44026 11.3437C8.44026 10.9711 8.47542 10.6078 8.54104 10.2539C8.55745 10.1695 8.51292 10.0828 8.43557 10.0476C8.11682 9.90467 7.82386 9.70779 7.57073 9.45935C7.27246 9.17015 7.03776 8.82195 6.88159 8.43697C6.72541 8.05199 6.65121 7.63868 6.6637 7.22342C6.68479 6.47107 6.98714 5.75623 7.51448 5.21717C8.09339 4.6242 8.87151 4.30076 9.69886 4.31013C10.4465 4.31717 11.1684 4.60545 11.7145 5.11638C11.8996 5.28982 12.059 5.48201 12.1926 5.68826C12.2395 5.76092 12.3309 5.79138 12.4106 5.76326C12.8231 5.62029 13.259 5.51951 13.7067 5.47263C13.8379 5.45857 13.9129 5.31795 13.8543 5.20076C13.0926 3.69373 11.5364 2.6531 9.73636 2.62498C7.13714 2.58513 4.97151 4.7156 4.97151 7.31013C4.97151 8.78201 5.64885 10.0945 6.71057 10.9547C5.96526 11.2992 5.27854 11.775 4.68323 12.3703C3.39885 13.6523 2.67229 15.3445 2.62542 17.1515C2.62479 17.1766 2.62918 17.2014 2.63832 17.2247C2.64746 17.248 2.66118 17.2693 2.67865 17.2872C2.69612 17.3051 2.71701 17.3193 2.74006 17.329C2.76312 17.3387 2.78789 17.3437 2.81292 17.3437H4.12776C4.22854 17.3437 4.31292 17.264 4.31526 17.1633C4.35979 15.8039 4.91057 14.5312 5.87854 13.5656C6.56761 12.8765 7.41136 12.3984 8.33245 12.1664C8.42386 12.1429 8.48479 12.0562 8.47307 11.9625V11.9625Z" fill="white"/>
</svg>
