<svg width="36" height="36" viewBox="0 0 36 36" fill="none" xmlns="http://www.w3.org/2000/svg">
<path d="M18 33.75C26.6985 33.75 33.75 26.6985 33.75 18C33.75 9.30152 26.6985 2.25 18 2.25C9.30152 2.25 2.25 9.30152 2.25 18C2.25 26.6985 9.30152 33.75 18 33.75Z" stroke="#E14817" stroke-width="2" stroke-miterlimit="10" stroke-linecap="round" stroke-linejoin="round"/>
<path d="M18 20.25C21.1066 20.25 23.625 17.7316 23.625 14.625C23.625 11.5184 21.1066 9 18 9C14.8934 9 12.375 11.5184 12.375 14.625C12.375 17.7316 14.8934 20.25 18 20.25Z" stroke="#E14817" stroke-width="2" stroke-miterlimit="10" stroke-linecap="round" stroke-linejoin="round"/>
<path d="M6.07495 28.2375C8.09995 23.625 12.6 20.3625 18 20.3625C23.4 20.3625 28.0125 23.625 29.925 28.2375" stroke="#E14817" stroke-width="2" stroke-miterlimit="10" stroke-linecap="round" stroke-linejoin="round"/>
</svg>
