<svg width="36" height="36" viewBox="0 0 36 36" fill="none" xmlns="http://www.w3.org/2000/svg">
<path d="M17.6625 17.8875C17.6625 19.9125 16.5375 21.6 14.9625 22.6125C14.9625 24.1875 15.975 25.5375 17.325 25.9875C19.125 26.6625 20.5875 28.2375 20.925 30.15L21.0375 30.9375C21.15 31.275 20.8125 31.5 20.5875 31.5H3.93752C3.60002 31.5 3.37502 31.1625 3.48752 30.9375L3.60002 30.15C3.93752 28.2375 5.40002 26.6625 7.20002 25.9875C8.66252 25.5375 9.56252 24.1875 9.56252 22.6125C7.98752 21.6 6.86252 19.8 6.86252 17.6625V13.275" stroke="white" stroke-width="2" stroke-miterlimit="10" stroke-linecap="round" stroke-linejoin="round"/>
<path d="M5.4 27C4.1625 24.3 3.375 20.925 3.375 17.8875C3.375 10.8 7.425 7.875 12.375 7.875C17.325 7.875 21.375 10.8 21.375 17.8875C21.375 20.925 20.5875 24.3 19.35 27" stroke="white" stroke-width="2" stroke-miterlimit="10" stroke-linecap="round" stroke-linejoin="round"/>
<path d="M21.2625 17.4375C20.1375 17.6625 18.9 17.775 17.6625 17.775C11.475 17.775 6.41245 14.4 6.07495 10.0125" stroke="white" stroke-width="2" stroke-miterlimit="10" stroke-linecap="round" stroke-linejoin="round"/>
<path d="M20.1374 28.125H32.0624C32.3999 28.125 32.6249 27.7875 32.5124 27.5625C32.0624 25.2 30.2624 23.2875 27.8999 22.6125C25.9874 22.1625 24.5249 20.3625 24.5249 18.3375C26.0999 17.4375 27.2249 15.6375 27.2249 13.6125C27.2249 12.6 28.0124 11.8125 29.0249 11.8125V9.675C29.0249 7.0875 27.1124 4.8375 24.6374 4.5C22.8374 4.275 21.2624 5.0625 20.2499 6.4125C19.5749 6.3 18.7874 6.3 17.8874 6.975C17.2124 7.425 16.7624 8.1 16.6499 8.8875" stroke="white" stroke-width="2" stroke-miterlimit="10" stroke-linecap="round" stroke-linejoin="round"/>
</svg>
