<svg width="36" height="36" viewBox="0 0 36 36" fill="none" xmlns="http://www.w3.org/2000/svg">
<path d="M23.625 4.5C21.15 4.5 19.125 6.525 19.125 9V15.75V20.25L25.875 16.875H29.25C31.725 16.875 33.75 14.85 33.75 12.375V9C33.75 6.525 31.725 4.5 29.25 4.5H23.625Z" stroke="white" stroke-width="2" stroke-miterlimit="10" stroke-linecap="round" stroke-linejoin="round"/>
<path d="M23.625 9H27" stroke="white" stroke-width="2" stroke-miterlimit="10" stroke-linecap="round" stroke-linejoin="round"/>
<path d="M23.625 12.375H24.75" stroke="white" stroke-width="2" stroke-miterlimit="10" stroke-linecap="round" stroke-linejoin="round"/>
<path d="M19.125 9.89999C18.45 9.44999 17.6625 9.11249 16.875 8.99999C15.075 8.77499 13.5 9.56249 12.4875 10.9125C11.7 10.6875 11.025 10.8 10.125 11.475C9.225 12.15 8.6625 13.275 8.6625 14.4V15.3V16.65V17.775C8.6625 19.8 9.675 21.7125 11.3625 22.725C11.3625 24.75 9.9 26.55 7.9875 27C5.625 27.7875 3.825 29.5875 3.375 32.0625C3.375 32.2875 3.6 32.625 3.825 32.625H24.1875C24.525 32.625 24.75 32.2875 24.6375 32.0625C24.1875 29.7 22.3875 27.7875 20.025 27.1125C18.1125 26.6625 16.65 24.8625 16.65 22.8375" stroke="white" stroke-width="2" stroke-miterlimit="10" stroke-linecap="round" stroke-linejoin="round"/>
</svg>
