<?xml version="1.0" encoding="iso-8859-1"?>
<!-- Generator: Adobe Illustrator 19.0.0, SVG Export Plug-In . SVG Version: 6.00 Build 0)  -->
<svg version="1.1" id="Capa_1" xmlns="http://www.w3.org/2000/svg" xmlns:xlink="http://www.w3.org/1999/xlink" x="0px" y="0px"
	 viewBox="0 0 512 512" style="enable-background:new 0 0 512 512;" xml:space="preserve">
<g>
	<g>
		<path d="M256,0c-60.654,0-110,49.346-110,110s49.346,110,110,110s110-49.346,110-110S316.654,0,256,0z M256,180
			c-38.598,0-70-31.402-70-70c0-38.598,31.402-70,70-70s70,31.402,70,70C326,148.598,294.598,180,256,180z"/>
	</g>
</g>
<g>
	<g>
		<path d="M389.53,295.281C355.44,257.607,306.771,236,256,236s-99.44,21.607-133.535,59.287C92.501,328.426,76,371.296,76,416v76
			c0,11.046,8.954,20,20,20h320c11.046,0,20-8.954,20-20v-76C436,371.297,419.499,328.427,389.53,295.281z M396,472H116v-56
			c0-34.771,12.833-68.115,36.13-93.881c21.412-23.663,50.216-39.172,81.301-44.272l-14.556,130.079
			c-0.676,6.043,1.434,12.066,5.733,16.366l17.25,17.25c3.905,3.905,9.024,5.858,14.143,5.858c5.119,0,10.237-1.953,14.143-5.858
			l17.25-17.25c4.3-4.3,6.409-10.323,5.733-16.366L278.57,277.847c31.085,5.1,59.888,20.608,81.295,44.266
			C383.167,347.886,396,381.229,396,416V472z"/>
	</g>
</g>
<g>
</g>
<g>
</g>
<g>
</g>
<g>
</g>
<g>
</g>
<g>
</g>
<g>
</g>
<g>
</g>
<g>
</g>
<g>
</g>
<g>
</g>
<g>
</g>
<g>
</g>
<g>
</g>
<g>
</g>
</svg>
