<svg height="512pt" viewBox="-39 0 512 512.00024" width="512pt" xmlns="http://www.w3.org/2000/svg"><path d="m96.828125 255.839844c0 11.039062 8.953125 19.988281 20 19.988281h200.34375c11.046875 0 20-8.949219 20-19.988281 0-44.34375-24.171875-83.148438-60.042969-103.949219 17.089844-16.039063 27.785156-38.808594 27.785156-64.03125 0-48.445313-39.4375-87.859375-87.914062-87.859375s-87.914062 39.414062-87.914062 87.859375c0 25.222656 10.695312 47.992187 27.785156 64.03125-35.867188 20.800781-60.042969 59.605469-60.042969 103.949219zm120.171875-215.863282c26.417969 0 47.914062 21.480469 47.914062 47.882813s-21.492187 47.882813-47.914062 47.882813c-26.417969 0-47.914062-21.480469-47.914062-47.882813s21.496093-47.882813 47.914062-47.882813zm0 135.742188c37.304688 0 68.742188 25.589844 77.648438 60.132812h-155.296876c8.90625-34.539062 40.34375-60.132812 77.648438-60.132812zm67.882812 248.457031c7.808594 7.804688 7.808594 20.460938 0 28.269531l-53.742187 53.707032c-.015625.015625-.035156.027344-.050781.042968-7.730469 7.671876-20.316406 7.808594-28.179688 0-.015625-.015624-.035156-.027343-.050781-.042968l-53.742187-53.707032c-7.808594-7.808593-7.808594-20.464843 0-28.269531 7.8125-7.804687 20.476562-7.804687 28.285156 0l19.597656 19.585938v-116.640625c0-11.039063 8.953125-19.988282 20-19.988282s20 8.949219 20 19.988282v116.640625l19.597656-19.585938c7.8125-7.804687 20.472656-7.804687 28.285156 0zm149.117188-67.199219v75.953126c0 10.796874-8.78125 19.988281-20.011719 19.988281h-76.042969c-11.050781 0-20.011718-8.949219-20.011718-19.988281 0-11.039063 8.960937-19.988282 20.011718-19.988282h27.730469l-82.574219-82.476562c-7.816406-7.804688-7.816406-20.460938 0-28.265625 7.8125-7.808594 20.484376-7.808594 28.296876 0l82.578124 82.476562v-27.695312c0-11.039063 8.960938-19.988281 20.011719-19.988281 11.054688 0 20.011719 8.945312 20.011719 19.984374zm-317.933594 75.953126c0 11.039062-8.960937 19.988281-20.011718 19.988281h-76.042969c-10.839844 0-20.011719-8.820313-20.011719-19.988281v-75.953126c0-11.039062 8.960938-19.988281 20.011719-19.988281s20.011719 8.949219 20.011719 19.988281v27.699219l82.574218-82.480469c7.816406-7.804687 20.488282-7.804687 28.300782 0 7.816406 7.808594 7.816406 20.464844 0 28.269532l-82.578126 82.476562h27.734376c11.050781 0 20.011718 8.949219 20.011718 19.988282zm0 0"/></svg>